<svg width="145" height="88" viewBox="0 0 145 88" fill="none" xmlns="http://www.w3.org/2000/svg">
<rect width="145" height="87.5472" rx="6" fill="#7433FF"/>
<rect x="0.359027" y="0.359027" width="144.282" height="86.8291" rx="5.64097" stroke="white" stroke-opacity="0.08" stroke-width="0.718055"/>
<rect x="7.29565" y="13.6792" width="129.497" height="61.1195" rx="6" fill="#7433FF"/>
<path opacity="0.8" d="M41.8978 18.8135C42.2042 18.2226 42.631 17.7739 43.1891 17.4456C43.7472 17.1173 44.4038 16.9532 45.148 16.9532C45.717 16.9532 46.2423 17.0626 46.7019 17.2815C47.1615 17.5003 47.5446 17.8177 47.84 18.2226C48.1246 18.6275 48.3106 19.0981 48.3982 19.6233H47.1397C47.0083 19.1418 46.7676 18.7588 46.4174 18.4743C46.0563 18.2007 45.6185 18.0584 45.0932 18.0584C44.6117 18.0584 44.1959 18.1788 43.8457 18.4196C43.4846 18.6603 43.211 18.9886 43.0249 19.4045C42.828 19.8203 42.7404 20.3018 42.7404 20.849C42.7404 21.3962 42.828 21.8777 43.0249 22.2935C43.211 22.7203 43.4846 23.0486 43.8457 23.2894C44.1959 23.5301 44.6117 23.6396 45.0932 23.6396C45.6185 23.6396 46.0563 23.5083 46.4065 23.2237C46.7566 22.9501 46.9974 22.5671 47.1287 22.0747H48.3872C48.2997 22.6218 48.1136 23.0924 47.8291 23.4864C47.5446 23.8913 47.1725 24.1977 46.7129 24.4166C46.2532 24.6354 45.728 24.7449 45.148 24.7449C44.4038 24.7449 43.7472 24.5917 43.1891 24.2634C42.631 23.946 42.2042 23.4973 41.8978 22.9064C41.5914 22.3154 41.4491 21.6369 41.4491 20.849C41.4491 20.083 41.5914 19.4045 41.8978 18.8135ZM49.3508 17.0188H50.5327V24.6792H49.3508V17.0188ZM52.8403 24.3947C52.4026 24.1539 52.0743 23.8256 51.8335 23.3879C51.5928 22.9501 51.4833 22.4467 51.4833 21.8777C51.4833 21.3196 51.5928 20.8271 51.8335 20.3894C52.0743 19.9517 52.4026 19.6124 52.8403 19.3717C53.2781 19.1309 53.7705 19.0105 54.3396 19.0105C54.8977 19.0105 55.3901 19.1309 55.8279 19.3717C56.2656 19.6124 56.5939 19.9517 56.8347 20.3894C57.0754 20.8271 57.1958 21.3196 57.1958 21.8777C57.1958 22.4467 57.0754 22.9501 56.8347 23.3879C56.5939 23.8256 56.2656 24.1539 55.8279 24.3947C55.3901 24.6354 54.8977 24.7449 54.3396 24.7449C53.7705 24.7449 53.2781 24.6354 52.8403 24.3947ZM55.5324 23.2237C55.8388 22.8735 55.992 22.4249 55.992 21.8777C55.992 21.3305 55.8388 20.8928 55.5324 20.5426C55.226 20.1924 54.832 20.0173 54.3396 20.0173C53.8362 20.0173 53.4422 20.1924 53.1467 20.5426C52.8403 20.8928 52.6981 21.3305 52.6981 21.8777C52.6981 22.4249 52.8403 22.8735 53.1467 23.2237C53.4422 23.5739 53.8362 23.7381 54.3396 23.7381C54.832 23.7381 55.226 23.5739 55.5324 23.2237ZM63.1692 19.0762V24.6792H62.1295L61.9982 23.9679C61.5714 24.4932 60.9914 24.7449 60.2692 24.7449C59.6126 24.7449 59.0763 24.5479 58.6714 24.132C58.2556 23.7271 58.0586 23.0705 58.0586 22.1622V19.0762H59.2405V22.0418C59.2405 22.589 59.3499 23.0049 59.5688 23.2894C59.7877 23.5739 60.105 23.7162 60.5428 23.7162C60.9914 23.7162 61.3416 23.552 61.6043 23.2237C61.856 22.8954 61.9873 22.4358 61.9873 21.8558V19.0762H63.1692ZM69.7727 17.0188V24.6792H68.7441L68.6018 23.8366C68.1531 24.4494 67.5403 24.7449 66.7743 24.7449C66.2599 24.7449 65.8003 24.6354 65.4063 24.4056C65.0014 24.1758 64.6841 23.8475 64.4652 23.4098C64.2354 22.972 64.1259 22.4686 64.1259 21.8777C64.1259 21.3086 64.2354 20.8162 64.4652 20.3784C64.695 19.9407 65.0124 19.6124 65.4173 19.3717C65.8112 19.1309 66.2709 19.0105 66.7743 19.0105C67.1792 19.0105 67.5403 19.0871 67.8467 19.2403C68.1531 19.3935 68.3939 19.5905 68.5909 19.8532V17.0188H69.7727ZM68.1531 23.2347C68.4486 22.8954 68.6018 22.4467 68.6018 21.8996C68.6018 21.3415 68.4486 20.8928 68.1531 20.5426C67.8467 20.1924 67.4527 20.0173 66.9712 20.0173C66.4788 20.0173 66.0848 20.1924 65.7893 20.5426C65.4829 20.8928 65.3407 21.3305 65.3407 21.8777C65.3407 22.4358 65.4829 22.8845 65.7893 23.2347C66.0848 23.5849 66.4788 23.749 66.9712 23.749C67.4527 23.749 67.8467 23.5849 68.1531 23.2347ZM74.8001 22.1841C74.833 22.6437 75.019 23.0049 75.3473 23.2784C75.6756 23.552 76.1133 23.6834 76.6496 23.6834C77.1092 23.6834 77.4922 23.5849 77.7767 23.3879C78.0613 23.1909 78.2145 22.9064 78.2145 22.5452C78.2145 22.2935 78.1269 22.0966 77.9737 21.9434C77.8205 21.7901 77.6016 21.6807 77.339 21.5932C77.0654 21.5166 76.6824 21.429 76.2009 21.3415C75.6975 21.2539 75.2707 21.1445 74.9205 21.0022C74.5703 20.86 74.2748 20.6411 74.056 20.3456C73.8371 20.0611 73.7277 19.6781 73.7277 19.1966C73.7277 18.7588 73.8371 18.3758 74.0669 18.0256C74.2967 17.6864 74.6141 17.4237 75.0299 17.2267C75.4458 17.0407 75.9164 16.9422 76.4526 16.9422C76.9997 16.9422 77.4813 17.0517 77.919 17.2486C78.3458 17.4566 78.685 17.7411 78.9367 18.0913C79.1775 18.4524 79.3197 18.8573 79.3416 19.3169H78.105C78.0613 18.923 77.8862 18.6056 77.5907 18.3649C77.2843 18.1241 76.9122 18.0037 76.4526 18.0037C76.0039 18.0037 75.6428 18.1022 75.3801 18.2992C75.1175 18.4962 74.9862 18.7588 74.9862 19.109C74.9862 19.3607 75.0628 19.5577 75.216 19.7C75.3692 19.8532 75.588 19.9626 75.8507 20.0283C76.1133 20.1049 76.4854 20.1815 76.9779 20.269C77.4703 20.3566 77.8971 20.4769 78.2582 20.6192C78.6084 20.7724 78.9039 20.9803 79.1337 21.2649C79.3526 21.5494 79.473 21.9324 79.473 22.392C79.473 22.8517 79.3526 23.2566 79.1118 23.6067C78.8711 23.9679 78.5318 24.2524 78.105 24.4494C77.6673 24.6464 77.1858 24.7449 76.6386 24.7449C76.0258 24.7449 75.5005 24.6354 75.0409 24.4166C74.5813 24.1977 74.2201 23.9022 73.9575 23.5083C73.6948 23.1143 73.5635 22.6656 73.5635 22.1622L74.8001 22.1841ZM84.8268 19.3607C85.2208 19.5905 85.5382 19.9188 85.768 20.3566C85.9868 20.7943 86.1072 21.2977 86.1072 21.8777C86.1072 22.4467 85.9868 22.9501 85.768 23.3879C85.5382 23.8256 85.2208 24.1539 84.8268 24.3947C84.4219 24.6354 83.9623 24.7449 83.4589 24.7449C83.0431 24.7449 82.6819 24.6683 82.3755 24.515C82.0691 24.3618 81.8174 24.1539 81.6423 23.8913V26.8679H80.4604V19.0762H81.4891L81.6314 19.9079C82.08 19.3169 82.6929 19.0105 83.4589 19.0105C83.9623 19.0105 84.4219 19.1309 84.8268 19.3607ZM84.4438 23.2237C84.7502 22.8735 84.9034 22.4249 84.9034 21.8777C84.9034 21.3305 84.7502 20.8818 84.4438 20.5317C84.1374 20.1924 83.7434 20.0173 83.2619 20.0173C82.7695 20.0173 82.3755 20.1924 82.08 20.5317C81.7736 20.8709 81.6314 21.3086 81.6314 21.8558C81.6314 22.4249 81.7736 22.8735 82.08 23.2237C82.3755 23.5739 82.7695 23.749 83.2619 23.749C83.7434 23.749 84.1374 23.5739 84.4438 23.2237ZM87.1856 20.3784C87.4154 19.9407 87.7327 19.6124 88.1486 19.3717C88.5644 19.1309 89.035 19.0105 89.5712 19.0105C90.1075 19.0105 90.578 19.12 90.9939 19.3388C91.4097 19.5577 91.7271 19.875 91.9678 20.269C92.2086 20.6739 92.329 21.1445 92.3399 21.6807C92.3399 21.8339 92.329 21.9762 92.3071 22.1294H88.0829V22.195C88.1048 22.6875 88.258 23.0705 88.5425 23.355C88.8161 23.6396 89.1882 23.7818 89.6478 23.7818C90.009 23.7818 90.3154 23.7052 90.5671 23.5301C90.8078 23.355 90.972 23.1143 91.0595 22.7969H92.2414C92.132 23.366 91.8584 23.8366 91.4097 24.1977C90.961 24.5698 90.4029 24.7449 89.7354 24.7449C89.1444 24.7449 88.641 24.6354 88.2033 24.3947C87.7656 24.1539 87.4373 23.8256 87.1965 23.3879C86.9558 22.9611 86.8463 22.4577 86.8463 21.8886C86.8463 21.3196 86.9558 20.8162 87.1856 20.3784ZM91.1361 21.2649C91.0814 20.86 90.9173 20.5426 90.6437 20.3128C90.3701 20.083 90.0309 19.9626 89.615 19.9626C89.221 19.9626 88.8927 20.083 88.6082 20.3237C88.3237 20.5645 88.1705 20.8709 88.1267 21.2649H91.1361ZM97.8697 19.6233C98.2856 20.0392 98.5045 20.6958 98.5045 21.5932V24.6792H97.3116V21.6588C97.3116 21.1335 97.1912 20.7286 96.9724 20.4441C96.7426 20.1705 96.4143 20.0283 95.9765 20.0283C95.506 20.0283 95.1339 20.1924 94.8712 20.5207C94.6086 20.849 94.4773 21.2867 94.4773 21.8558V24.6792H93.2954V19.0762H94.3241L94.4554 19.8094C94.8712 19.2841 95.4731 19.0105 96.2501 19.0105C96.9067 19.0105 97.4539 19.2184 97.8697 19.6233ZM99.9404 20.1158H98.9665V19.0762H99.9404V17.5113H101.133V19.0762H102.479V20.1158H101.133V23.0377C101.133 23.2566 101.177 23.4207 101.265 23.5083C101.352 23.5958 101.494 23.6396 101.713 23.6396H102.611V24.6792H101.473C100.936 24.6792 100.542 24.5588 100.302 24.3071C100.061 24.0664 99.9404 23.6834 99.9404 23.1581V20.1158Z" fill="white"/>
<line opacity="0.1" x1="7.29565" y1="30.7828" x2="136.793" y2="30.7828" stroke="white" stroke-width="0.91195"/>
<path d="M52.3759 56.6188C53.4265 57.0784 54.3129 57.7022 55.0023 58.5558C55.6589 59.4094 56.02 60.5585 56.02 61.9373C56.02 63.1849 55.6917 64.3011 55.1008 65.286C54.5099 66.2709 53.6563 67.0917 52.5729 67.7483C51.4895 68.4049 50.2419 68.7988 48.8631 68.9301V72.3117H45.6785V68.8645C43.4461 68.569 41.6404 67.7154 40.3272 66.3366C39.014 64.9577 38.3246 63.2834 38.2917 61.2479L42.0015 61.3135C42.1 62.6924 42.6582 63.7758 43.6431 64.5966C44.628 65.4173 45.9412 65.8113 47.5499 65.8113C48.9287 65.8113 50.0778 65.5158 50.9314 64.9249C51.7849 64.3339 52.2446 63.4803 52.2446 62.3969C52.2446 61.6418 51.9819 61.0509 51.5223 60.5913C51.0627 60.1317 50.4061 59.8034 49.6182 59.5407C48.7974 59.3109 47.6483 59.0483 46.2038 58.7856C44.6936 58.523 43.4132 58.1947 42.3627 57.7679C41.3121 57.3411 40.4257 56.6845 39.7691 55.7981C39.1125 54.9445 38.7842 53.7954 38.7842 52.3509C38.7842 50.5781 39.408 49.0679 40.6555 47.8532C41.9031 46.6385 43.5774 45.9162 45.6785 45.6535V42.272H48.8631V45.752C50.8329 46.0803 52.4415 46.9011 53.6563 48.1486C54.871 49.3962 55.5276 50.9392 55.6261 52.712H51.9163C51.7849 51.5301 51.2597 50.5781 50.3732 49.8558C49.454 49.1335 48.3378 48.7724 46.9589 48.7724C45.6129 48.7724 44.5295 49.0679 43.7415 49.6588C42.9536 50.2498 42.5597 51.0377 42.5597 52.0883C42.5597 52.8434 42.7895 53.4343 43.2491 53.8611C43.7087 54.3207 44.3653 54.649 45.1532 54.846C45.9412 55.0758 47.0574 55.3056 48.5348 55.5683C50.0121 55.8309 51.2925 56.192 52.3759 56.6188ZM66.2708 45.8177V68.7988H62.6594V53.2701C62.3311 53.4671 61.8387 53.5656 61.2149 53.5656H57.4394V50.4796H61.0508C61.576 50.4796 62.0028 50.2826 62.2983 49.8886C62.5609 49.4947 62.7251 49.0022 62.7251 48.3456V45.8177H66.2708ZM85.5667 58.7528C86.4859 59.7377 86.9784 61.0181 86.9784 62.5939C86.9784 63.8415 86.6173 64.9577 85.9607 65.9426C85.2712 66.9275 84.2863 67.6826 83.0059 68.2079C81.7256 68.7332 80.2154 68.9958 78.4425 68.9958C76.6697 68.9958 75.1267 68.7332 73.8463 68.2079C72.5659 67.6826 71.581 66.9275 70.9244 65.9426C70.235 64.9577 69.9067 63.8415 69.9067 62.5939C69.9067 61.0509 70.3663 59.7705 71.2856 58.7856C72.2048 57.8007 73.3867 57.1769 74.8312 56.8486C73.5837 56.586 72.5659 55.9951 71.778 55.0758C70.9573 54.1566 70.5633 53.0403 70.5633 51.6943C70.5633 50.5124 70.8588 49.429 71.5154 48.5098C72.1391 47.5905 73.0584 46.9011 74.2403 46.3758C75.4222 45.8505 76.8339 45.5879 78.4425 45.5879C80.0184 45.5879 81.4301 45.8505 82.612 46.3758C83.7939 46.9011 84.7131 47.5905 85.3697 48.5098C85.9935 49.429 86.3218 50.5124 86.3218 51.6943C86.3218 53.0075 85.895 54.1237 85.0742 55.043C84.2207 55.9951 83.2029 56.586 81.9554 56.8486C83.3999 57.1441 84.6146 57.7679 85.5667 58.7528ZM75.3237 49.3305C74.5029 49.9871 74.109 50.8079 74.109 51.7928C74.109 52.8434 74.5029 53.6641 75.3237 54.2879C76.1116 54.9445 77.1622 55.24 78.4425 55.24C79.6901 55.24 80.7407 54.9445 81.5286 54.2879C82.3165 53.6313 82.7433 52.8105 82.7433 51.7928C82.7433 50.8079 82.3165 49.9871 81.5286 49.3305C80.7407 48.6739 79.6901 48.3456 78.4425 48.3456C77.1622 48.3456 76.1116 48.6739 75.3237 49.3305ZM81.9554 65.1875C82.8746 64.4652 83.3342 63.546 83.3342 62.3969C83.3342 61.2807 82.8418 60.3615 81.9225 59.6064C81.0033 58.8513 79.8214 58.4573 78.4425 58.4573C76.998 58.4573 75.8161 58.8513 74.8969 59.6064C73.9776 60.3615 73.518 61.2807 73.518 62.3969C73.518 63.546 73.9776 64.4652 74.8969 65.1875C75.8161 65.9098 76.998 66.2709 78.4425 66.2709C79.8542 66.2709 81.0361 65.9098 81.9554 65.1875ZM98.2897 58.3588C99.4716 57.3739 100.391 56.4547 100.982 55.6011C101.573 54.7475 101.901 53.8283 101.901 52.8105C101.901 51.5301 101.507 50.5124 100.719 49.7901C99.9312 49.0679 98.8478 48.7068 97.5018 48.7068C96.1885 48.7068 95.1051 49.1335 94.3172 49.9871C93.5293 50.8407 93.1353 51.9569 93.1353 53.3358V53.7626H89.4912V53.1388C89.4912 51.6943 89.8195 50.4139 90.4761 49.2649C91.1327 48.1486 92.0848 47.2294 93.2995 46.5728C94.4814 45.9162 95.8931 45.5879 97.5018 45.5879C100.063 45.5879 102.032 46.2445 103.477 47.5249C104.889 48.8052 105.611 50.5124 105.611 52.6464C105.611 54.2222 105.184 55.5683 104.396 56.7501C103.575 57.932 102.361 59.1796 100.752 60.5256L94.6455 65.6143H105.742V68.7988H89.4584V65.8769L98.2897 58.3588Z" fill="white"/>
</svg>
