<svg width="281" height="210" viewBox="0 0 281 210" fill="none" xmlns="http://www.w3.org/2000/svg">
<path d="M6.99999 1H274C277.314 1 280 3.68629 280 7V203C280 206.314 277.314 209 274 209H6.99999C3.68629 209 1 206.314 1 203V7C1 3.68629 3.68629 1 6.99999 1Z" fill="url(#paint0_linear_1068_1306)" fill-opacity="0.05" stroke="#252527" stroke-width="1.14991" stroke-linecap="round"/>
<g clip-path="url(#clip0_1068_1306)">
<rect x="5" y="5.66943" width="271" height="198.661" rx="3.23904" fill="#19191A"/>
<rect x="5" y="5.66943" width="271" height="198.661" rx="3.23904" fill="url(#paint1_radial_1068_1306)" fill-opacity="0.1"/>
<g clip-path="url(#clip1_1068_1306)">
<path d="M12.9392 172.366C4.6775 179.973 -7.71509 178.705 -12.8787 177.12V216.741H295.215V83.6163C294.641 84.6729 292.117 86.786 286.609 86.786C281.101 86.786 273.987 87.8425 271.118 88.3708C268.823 91.5404 263.201 98.8305 259.07 102.634C253.906 107.389 247.021 104.219 241.858 107.389C236.694 110.558 224.646 110.558 222.925 112.143C221.203 113.728 195.386 124.821 188.501 132.746C181.616 140.67 143.75 132.746 138.586 132.746C134.455 132.746 127.685 139.085 124.817 142.254L107.605 37.6567C101.294 70.9378 88.3274 139.719 86.9505 148.594C85.2293 159.687 59.4114 166.027 45.6419 164.442C31.8723 162.857 23.2664 162.857 12.9392 172.366Z" fill="url(#paint2_linear_1068_1306)" fill-opacity="0.4" stroke="#26D756" stroke-width="2.15936"/>
</g>
<path opacity="0.1" d="M20.1155 110.399H260.884" stroke="white" stroke-opacity="0.5" stroke-width="0.332381" stroke-linecap="round"/>
<line opacity="0.1" x1="20.2817" y1="72.4432" x2="260.718" y2="72.4432" stroke="white" stroke-opacity="0.5" stroke-width="0.332381" stroke-linecap="round"/>
<line opacity="0.1" x1="20.2817" y1="146.941" x2="260.718" y2="146.941" stroke="white" stroke-opacity="0.5" stroke-width="0.332381" stroke-linecap="round"/>
<line opacity="0.1" x1="20.2817" y1="183.65" x2="260.718" y2="183.65" stroke="white" stroke-opacity="0.5" stroke-width="0.332381" stroke-linecap="square"/>
</g>
<rect x="5.25904" y="5.92847" width="270.482" height="198.143" rx="2.98001" stroke="white" stroke-opacity="0.08" stroke-width="0.518072"/>
<rect x="5.25904" y="5.92847" width="270.482" height="198.143" rx="2.98001" stroke="white" stroke-opacity="0.08" stroke-width="0.518072"/>
<rect x="5.25904" y="5.92847" width="270.482" height="198.143" rx="2.98001" stroke="url(#paint3_radial_1068_1306)" stroke-width="0.518072"/>
<defs>
<linearGradient id="paint0_linear_1068_1306" x1="355.33" y1="109.11" x2="-54.941" y2="60.1819" gradientUnits="userSpaceOnUse">
<stop stop-color="#F6F6F6"/>
<stop offset="1" stop-color="#323234"/>
</linearGradient>
<radialGradient id="paint1_radial_1068_1306" cx="0" cy="0" r="1" gradientUnits="userSpaceOnUse" gradientTransform="translate(195.147 75.6359) rotate(112.953) scale(112.192 127.881)">
<stop stop-color="#05FEFF"/>
<stop offset="1" stop-color="white" stop-opacity="0"/>
</radialGradient>
<linearGradient id="paint2_linear_1068_1306" x1="141.168" y1="37.6567" x2="141.168" y2="179.629" gradientUnits="userSpaceOnUse">
<stop stop-color="#26D756"/>
<stop offset="1" stop-color="#191919" stop-opacity="0.5"/>
</linearGradient>
<radialGradient id="paint3_radial_1068_1306" cx="0" cy="0" r="1" gradientUnits="userSpaceOnUse" gradientTransform="translate(210.759 39.4044) rotate(113.554) scale(92.3274 104.159)">
<stop stop-color="#5C80FF" stop-opacity="0.5"/>
<stop offset="1" stop-color="#57D7FF" stop-opacity="0"/>
</radialGradient>
<clipPath id="clip0_1068_1306">
<rect x="5" y="5.66943" width="271" height="198.661" rx="3.23904" fill="white"/>
</clipPath>
<clipPath id="clip1_1068_1306">
<rect width="303.043" height="163.306" fill="white" transform="translate(-11.1952 20.8213)"/>
</clipPath>
</defs>
</svg>
