<svg width="402" height="295" viewBox="0 0 402 295" fill="none" xmlns="http://www.w3.org/2000/svg">
<rect x="0.5" y="0.5" width="401" height="294" rx="4.5" fill="url(#paint0_linear_890_1767)" fill-opacity="0.05"/>
<rect x="0.5" y="0.5" width="401" height="294" rx="4.5" stroke="#252527"/>
<rect x="0.5" y="0.5" width="401" height="294" rx="4.5" stroke="url(#paint1_radial_890_1767)"/>
<rect x="4" y="4" width="394" height="287" rx="3.4321" fill="#1B1B1B"/>
<rect x="4.31202" y="4.31202" width="393.376" height="286.376" rx="3.12008" stroke="white" stroke-opacity="0.08" stroke-width="0.624043"/>
<path d="M385.137 4H130.351C122.978 4 117 9.97753 117 17.3512V172.305C117 179.679 122.978 185.657 130.351 185.657H385.137C392.51 185.657 398.488 179.679 398.488 172.305V17.3512C398.488 9.97753 392.51 4 385.137 4Z" fill="url(#paint2_radial_890_1767)" fill-opacity="0.1"/>
<path d="M22.024 24.8H24.408L27.992 33.616L31.512 24.8H33.848V36H32.072V27.76L28.712 36H27.16L23.8 27.76V36H22.024V24.8ZM35.915 29.712C36.251 29.072 36.715 28.592 37.323 28.24C37.931 27.888 38.619 27.712 39.403 27.712C40.187 27.712 40.875 27.872 41.483 28.192C42.091 28.512 42.555 28.976 42.907 29.552C43.259 30.144 43.435 30.832 43.451 31.616C43.451 31.84 43.435 32.048 43.403 32.272H37.227V32.368C37.259 33.088 37.483 33.648 37.899 34.064C38.299 34.48 38.843 34.688 39.515 34.688C40.043 34.688 40.491 34.576 40.859 34.32C41.211 34.064 41.451 33.712 41.579 33.248H43.307C43.147 34.08 42.747 34.768 42.091 35.296C41.435 35.84 40.619 36.096 39.643 36.096C38.779 36.096 38.043 35.936 37.403 35.584C36.763 35.232 36.283 34.752 35.931 34.112C35.579 33.488 35.419 32.752 35.419 31.92C35.419 31.088 35.579 30.352 35.915 29.712ZM41.691 31.008C41.611 30.416 41.371 29.952 40.971 29.616C40.571 29.28 40.075 29.104 39.467 29.104C38.891 29.104 38.411 29.28 37.995 29.632C37.579 29.984 37.355 30.432 37.291 31.008H41.691ZM56.496 28.592C57.056 29.168 57.344 30.096 57.344 31.376V36H55.616V31.392C55.616 30.688 55.472 30.144 55.184 29.76C54.896 29.392 54.464 29.2 53.904 29.2C53.296 29.2 52.832 29.424 52.48 29.84C52.128 30.256 51.968 30.832 51.968 31.568V36H50.224V31.392C50.224 30.672 50.064 30.128 49.776 29.76C49.488 29.392 49.056 29.2 48.496 29.2C47.904 29.2 47.44 29.424 47.088 29.856C46.736 30.304 46.576 30.88 46.576 31.616V36H44.848V27.808H46.352L46.544 28.88C47.12 28.112 47.92 27.728 48.944 27.712C49.52 27.712 50.016 27.84 50.464 28.08C50.896 28.336 51.232 28.704 51.472 29.2C51.76 28.736 52.128 28.368 52.608 28.112C53.072 27.856 53.632 27.712 54.304 27.712C55.2 27.712 55.92 28.016 56.496 28.592ZM60.5905 35.584C59.9505 35.232 59.4705 34.752 59.1185 34.112C58.7665 33.472 58.6065 32.736 58.6065 31.904C58.6065 31.088 58.7665 30.368 59.1185 29.728C59.4705 29.088 59.9505 28.592 60.5905 28.24C61.2305 27.888 61.9505 27.712 62.7825 27.712C63.5985 27.712 64.3185 27.888 64.9585 28.24C65.5985 28.592 66.0785 29.088 66.4305 29.728C66.7825 30.368 66.9585 31.088 66.9585 31.904C66.9585 32.736 66.7825 33.472 66.4305 34.112C66.0785 34.752 65.5985 35.232 64.9585 35.584C64.3185 35.936 63.5985 36.096 62.7825 36.096C61.9505 36.096 61.2305 35.936 60.5905 35.584ZM64.5265 33.872C64.9745 33.36 65.1985 32.704 65.1985 31.904C65.1985 31.104 64.9745 30.464 64.5265 29.952C64.0785 29.44 63.5025 29.184 62.7825 29.184C62.0465 29.184 61.4705 29.44 61.0385 29.952C60.5905 30.464 60.3825 31.104 60.3825 31.904C60.3825 32.704 60.5905 33.36 61.0385 33.872C61.4705 34.384 62.0465 34.624 62.7825 34.624C63.5025 34.624 64.0785 34.384 64.5265 33.872ZM72.876 27.808V29.424H72.108C71.388 29.424 70.876 29.664 70.556 30.128C70.236 30.592 70.076 31.184 70.076 31.888V36H68.348V27.808H69.884L70.076 29.04C70.3 28.656 70.604 28.368 70.988 28.144C71.356 27.92 71.852 27.808 72.492 27.808H72.876ZM75.0908 27.808L77.3788 34.128L79.6028 27.808H81.4427L77.7308 37.28C77.5388 37.776 77.3628 38.16 77.2028 38.416C77.0428 38.672 76.8348 38.88 76.6108 39.008C76.3708 39.136 76.0508 39.2 75.6668 39.2H73.8108V37.68H75.0268C75.3468 37.68 75.5868 37.632 75.7148 37.536C75.8428 37.44 75.9708 37.2 76.1148 36.848L76.4508 36.064L73.2508 27.808H75.0908ZM90.6985 24.8C91.9145 24.8 92.8745 25.056 93.5465 25.568C94.2185 26.08 94.5705 26.8 94.5705 27.712C94.5705 28.384 94.3785 28.944 94.0265 29.376C93.6745 29.808 93.1625 30.096 92.4905 30.24C94.1545 30.528 95.0025 31.408 95.0025 32.88C95.0025 33.856 94.6345 34.624 93.9145 35.168C93.1945 35.728 92.1705 36 90.8425 36H86.5865V24.8H90.6985ZM88.4265 29.552H90.7465C91.3705 29.552 91.8505 29.408 92.2025 29.12C92.5545 28.832 92.7305 28.448 92.7305 27.936C92.7305 27.44 92.5545 27.056 92.2025 26.768C91.8505 26.48 91.3705 26.336 90.7465 26.336H88.4265V29.552ZM88.4265 34.448H90.8585C91.5785 34.448 92.1385 34.304 92.5225 34.016C92.9065 33.728 93.1145 33.312 93.1145 32.784C93.1145 32.24 92.9065 31.824 92.5225 31.52C92.1225 31.232 91.5625 31.072 90.8585 31.072H88.4265V34.448ZM104.376 34.496V36H103.464C102.92 36 102.536 35.888 102.312 35.664C102.072 35.44 101.96 35.12 101.96 34.688C101.336 35.632 100.44 36.096 99.2555 36.096C98.3275 36.096 97.5915 35.888 97.0475 35.456C96.4875 35.04 96.2155 34.448 96.2155 33.696C96.2155 32.864 96.5035 32.208 97.1115 31.76C97.7035 31.312 98.5675 31.072 99.7195 31.072H101.784V30.576C101.784 30.128 101.624 29.76 101.304 29.504C100.984 29.248 100.536 29.104 99.9755 29.104C99.4635 29.104 99.0475 29.216 98.7275 29.44C98.4075 29.664 98.2155 29.952 98.1515 30.304H96.4555C96.5355 29.488 96.9035 28.848 97.5435 28.4C98.1835 27.952 99.0155 27.712 100.056 27.712C101.144 27.712 101.992 27.968 102.6 28.48C103.192 28.992 103.496 29.728 103.496 30.688V33.92C103.496 34.304 103.672 34.496 104.04 34.496H104.376ZM101.784 32.352H99.6395C99.0955 32.352 98.6955 32.464 98.4075 32.672C98.1195 32.88 97.9755 33.184 97.9755 33.584C97.9755 33.936 98.1035 34.224 98.3755 34.432C98.6475 34.656 99.0155 34.752 99.4955 34.752C100.2 34.752 100.76 34.56 101.16 34.176C101.56 33.792 101.768 33.28 101.784 32.64V32.352ZM106.693 33.296C106.725 33.728 106.917 34.08 107.285 34.352C107.653 34.624 108.133 34.752 108.725 34.752C109.237 34.752 109.669 34.656 109.989 34.464C110.309 34.272 110.485 34 110.485 33.664C110.485 33.392 110.405 33.184 110.261 33.04C110.101 32.912 109.909 32.816 109.653 32.752C109.397 32.688 109.013 32.624 108.501 32.56C107.781 32.48 107.189 32.368 106.725 32.224C106.261 32.08 105.893 31.856 105.605 31.536C105.317 31.216 105.189 30.8 105.189 30.256C105.189 29.76 105.317 29.312 105.605 28.928C105.893 28.544 106.277 28.24 106.773 28.016C107.269 27.808 107.829 27.696 108.469 27.696C109.493 27.696 110.341 27.936 110.981 28.384C111.621 28.848 111.973 29.488 112.037 30.32H110.357C110.309 29.952 110.117 29.648 109.797 29.408C109.461 29.168 109.045 29.04 108.549 29.04C108.037 29.04 107.637 29.136 107.333 29.328C107.013 29.52 106.869 29.792 106.869 30.112C106.869 30.368 106.933 30.544 107.093 30.672C107.253 30.8 107.445 30.88 107.685 30.928C107.909 30.976 108.293 31.024 108.821 31.088C109.525 31.168 110.117 31.28 110.597 31.44C111.077 31.6 111.461 31.84 111.749 32.176C112.037 32.512 112.181 32.96 112.181 33.536C112.181 34.048 112.021 34.512 111.733 34.896C111.429 35.28 111.013 35.584 110.501 35.792C109.973 36 109.381 36.096 108.741 36.096C107.637 36.096 106.741 35.856 106.069 35.36C105.397 34.864 105.045 34.176 105.029 33.296H106.693ZM115.198 24.832C115.39 25.024 115.502 25.28 115.502 25.568C115.502 25.872 115.39 26.128 115.198 26.32C114.99 26.512 114.734 26.608 114.446 26.608C114.142 26.608 113.886 26.512 113.694 26.32C113.486 26.128 113.39 25.872 113.39 25.568C113.39 25.28 113.486 25.024 113.694 24.832C113.886 24.64 114.142 24.528 114.446 24.528C114.734 24.528 114.99 24.64 115.198 24.832ZM113.582 27.808H115.31V36H113.582V27.808ZM123.324 35.296C122.652 35.84 121.804 36.096 120.78 36.096C119.964 36.096 119.244 35.936 118.636 35.584C118.012 35.232 117.532 34.736 117.196 34.096C116.86 33.456 116.7 32.72 116.7 31.888C116.7 31.056 116.86 30.336 117.212 29.696C117.548 29.072 118.028 28.592 118.652 28.24C119.276 27.888 119.996 27.712 120.828 27.712C121.852 27.712 122.684 27.984 123.34 28.528C123.98 29.072 124.396 29.792 124.556 30.72H122.78C122.652 30.256 122.428 29.888 122.076 29.6C121.724 29.328 121.292 29.184 120.78 29.184C120.076 29.184 119.516 29.44 119.1 29.936C118.684 30.448 118.476 31.088 118.476 31.888C118.476 32.704 118.684 33.36 119.1 33.872C119.516 34.384 120.076 34.624 120.78 34.624C121.308 34.624 121.756 34.496 122.108 34.208C122.46 33.92 122.684 33.536 122.796 33.056H124.556C124.396 34.016 123.98 34.752 123.324 35.296Z" fill="white"/>
<path opacity="0.9" d="M32.799 76.237C33.15 75.931 33.42 75.661 33.6 75.409C33.78 75.157 33.87 74.878 33.87 74.563C33.87 74.176 33.744 73.87 33.492 73.645C33.24 73.429 32.907 73.312 32.493 73.312C32.079 73.312 31.755 73.438 31.512 73.69C31.26 73.942 31.143 74.284 31.143 74.716V74.833H30.387V74.671C30.387 74.275 30.468 73.924 30.648 73.618C30.819 73.312 31.062 73.078 31.386 72.898C31.71 72.727 32.079 72.637 32.493 72.637C33.159 72.637 33.69 72.808 34.068 73.15C34.446 73.492 34.644 73.951 34.644 74.527C34.644 74.833 34.581 75.103 34.464 75.346C34.347 75.598 34.194 75.823 34.014 76.021C33.825 76.219 33.582 76.453 33.285 76.705L31.395 78.307H34.689V79H30.351V78.361L32.799 76.237ZM38.1913 74.176C38.4343 73.69 38.7853 73.321 39.2443 73.051C39.6943 72.781 40.2253 72.646 40.8283 72.646C41.5213 72.646 42.1063 72.835 42.5743 73.213C43.0423 73.591 43.3393 74.104 43.4653 74.752H42.6913C42.5653 74.32 42.3403 73.978 42.0163 73.735C41.6833 73.492 41.2783 73.366 40.8103 73.366C40.3783 73.366 39.9913 73.474 39.6583 73.681C39.3253 73.897 39.0733 74.185 38.8933 74.563C38.7133 74.941 38.6233 75.373 38.6233 75.85C38.6233 76.336 38.7133 76.759 38.8933 77.137C39.0733 77.515 39.3253 77.812 39.6583 78.019C39.9823 78.235 40.3603 78.334 40.7923 78.334C41.1703 78.334 41.5123 78.262 41.8183 78.118C42.1243 77.974 42.3583 77.758 42.5293 77.488C42.7003 77.218 42.7903 76.894 42.7903 76.525V76.309H40.9003V75.589H43.5553V79H42.9073L42.8263 78.001C42.6463 78.289 42.3853 78.532 42.0433 78.739C41.6923 78.955 41.2693 79.054 40.7833 79.054C40.2073 79.054 39.6943 78.919 39.2443 78.649C38.7943 78.379 38.4433 78.01 38.1913 77.524C37.9393 77.038 37.8223 76.48 37.8223 75.85C37.8223 75.22 37.9393 74.662 38.1913 74.176ZM45.383 72.772C45.473 72.862 45.518 72.979 45.518 73.114C45.518 73.258 45.473 73.366 45.383 73.456C45.293 73.546 45.176 73.591 45.041 73.591C44.897 73.591 44.789 73.546 44.699 73.456C44.609 73.366 44.564 73.258 44.564 73.114C44.564 72.979 44.609 72.862 44.699 72.772C44.789 72.682 44.897 72.637 45.041 72.637C45.176 72.637 45.293 72.682 45.383 72.772ZM44.672 74.41H45.41V79H44.672V74.41ZM48.761 72.7C49.427 72.7 49.94 72.844 50.3 73.132C50.66 73.42 50.849 73.825 50.849 74.329C50.849 74.707 50.75 75.013 50.561 75.256C50.363 75.499 50.084 75.67 49.724 75.76C50.642 75.94 51.11 76.435 51.11 77.263C51.11 77.803 50.912 78.235 50.516 78.541C50.12 78.847 49.562 79 48.824 79H46.529V72.7H48.761ZM47.312 75.436H48.797C49.193 75.436 49.508 75.346 49.733 75.166C49.949 74.986 50.066 74.743 50.066 74.419C50.066 74.104 49.949 73.861 49.733 73.681C49.517 73.501 49.202 73.411 48.797 73.411H47.312V75.436ZM47.312 78.289H48.824C49.301 78.289 49.67 78.199 49.922 78.01C50.174 77.83 50.309 77.569 50.309 77.236C50.309 76.885 50.174 76.615 49.922 76.426C49.661 76.237 49.292 76.138 48.824 76.138H47.312V78.289Z" fill="white"/>
<path opacity="0.9" d="M23.25 113.7V120H22.494V115.554C22.404 115.635 22.26 115.671 22.062 115.671H21.045V114.996H22.071C22.215 114.996 22.323 114.951 22.395 114.852C22.467 114.753 22.512 114.618 22.512 114.456V113.7H23.25ZM24.476 119.19C24.566 119.1 24.692 119.046 24.845 119.046C24.989 119.046 25.115 119.1 25.214 119.19C25.304 119.28 25.358 119.406 25.358 119.55C25.358 119.703 25.304 119.829 25.214 119.919C25.115 120.009 24.989 120.054 24.845 120.054C24.692 120.054 24.566 120.009 24.476 119.919C24.377 119.829 24.332 119.703 24.332 119.55C24.332 119.406 24.377 119.28 24.476 119.19ZM29.3893 116.049C29.6953 116.229 29.9383 116.481 30.1183 116.796C30.2893 117.12 30.3793 117.48 30.3793 117.894C30.3793 118.344 30.2803 118.731 30.0823 119.055C29.8843 119.379 29.6143 119.631 29.2813 119.793C28.9393 119.964 28.5703 120.045 28.1743 120.045C27.7153 120.045 27.3193 119.964 26.9863 119.784C26.6443 119.604 26.3833 119.361 26.2033 119.055C26.0233 118.749 25.9153 118.416 25.8973 118.038H26.6533C26.6893 118.416 26.8423 118.74 27.1123 118.992C27.3823 119.244 27.7423 119.37 28.1743 119.37C28.4263 119.37 28.6603 119.316 28.8763 119.208C29.0923 119.1 29.2723 118.929 29.4073 118.704C29.5333 118.488 29.6053 118.218 29.6053 117.903C29.6053 117.471 29.4703 117.12 29.2183 116.85C28.9573 116.58 28.6153 116.445 28.1833 116.445C27.8953 116.445 27.6163 116.508 27.3463 116.625C27.0673 116.751 26.8693 116.976 26.7523 117.3L26.0233 117.282L26.2303 113.7H29.9743V114.393H26.9233L26.7793 116.463C26.9593 116.229 27.1933 116.049 27.4723 115.941C27.7513 115.833 28.0393 115.779 28.3273 115.779C28.7233 115.779 29.0743 115.869 29.3893 116.049ZM31.1613 116.706C31.1613 116.112 31.2603 115.59 31.4583 115.122C31.6563 114.663 31.9443 114.303 32.3043 114.042C32.6643 113.781 33.0873 113.646 33.5553 113.646C34.0143 113.646 34.4283 113.781 34.7883 114.042C35.1483 114.303 35.4363 114.663 35.6343 115.122C35.8323 115.59 35.9403 116.112 35.9403 116.706V116.994C35.9403 117.615 35.8323 118.155 35.6343 118.614C35.4363 119.082 35.1573 119.433 34.7973 119.685C34.4373 119.937 34.0233 120.054 33.5553 120.054C33.0783 120.054 32.6643 119.937 32.3043 119.685C31.9443 119.433 31.6563 119.082 31.4583 118.614C31.2603 118.155 31.1613 117.615 31.1613 116.994V116.706ZM34.9683 115.455C34.8333 115.095 34.6443 114.825 34.4013 114.627C34.1583 114.438 33.8793 114.339 33.5553 114.339C33.2313 114.339 32.9433 114.438 32.7003 114.627C32.4483 114.825 32.2593 115.095 32.1243 115.455C31.9893 115.815 31.9263 116.247 31.9263 116.733V116.967C31.9263 117.462 31.9893 117.885 32.1243 118.245C32.2593 118.605 32.4483 118.884 32.7003 119.073C32.9433 119.271 33.2313 119.361 33.5553 119.361C33.8793 119.361 34.1583 119.271 34.4013 119.073C34.6443 118.884 34.8333 118.605 34.9683 118.245C35.1033 117.885 35.1753 117.462 35.1753 116.967V116.733C35.1753 116.247 35.1033 115.815 34.9683 115.455ZM39.4658 115.176C39.7088 114.69 40.0598 114.321 40.5188 114.051C40.9688 113.781 41.4998 113.646 42.1028 113.646C42.7958 113.646 43.3808 113.835 43.8488 114.213C44.3168 114.591 44.6138 115.104 44.7398 115.752H43.9658C43.8398 115.32 43.6148 114.978 43.2908 114.735C42.9578 114.492 42.5528 114.366 42.0848 114.366C41.6528 114.366 41.2658 114.474 40.9328 114.681C40.5998 114.897 40.3478 115.185 40.1678 115.563C39.9878 115.941 39.8978 116.373 39.8978 116.85C39.8978 117.336 39.9878 117.759 40.1678 118.137C40.3478 118.515 40.5998 118.812 40.9328 119.019C41.2568 119.235 41.6348 119.334 42.0668 119.334C42.4448 119.334 42.7868 119.262 43.0928 119.118C43.3988 118.974 43.6328 118.758 43.8037 118.488C43.9748 118.218 44.0648 117.894 44.0648 117.525V117.309H42.1748V116.589H44.8298V120H44.1818L44.1008 119.001C43.9208 119.289 43.6598 119.532 43.3178 119.739C42.9668 119.955 42.5438 120.054 42.0578 120.054C41.4818 120.054 40.9688 119.919 40.5188 119.649C40.0688 119.379 39.7178 119.01 39.4658 118.524C39.2138 118.038 39.0968 117.48 39.0968 116.85C39.0968 116.22 39.2138 115.662 39.4658 115.176ZM46.6574 113.772C46.7474 113.862 46.7924 113.979 46.7924 114.114C46.7924 114.258 46.7474 114.366 46.6574 114.456C46.5674 114.546 46.4504 114.591 46.3154 114.591C46.1714 114.591 46.0634 114.546 45.9734 114.456C45.8834 114.366 45.8384 114.258 45.8384 114.114C45.8384 113.979 45.8834 113.862 45.9734 113.772C46.0634 113.682 46.1714 113.637 46.3154 113.637C46.4504 113.637 46.5674 113.682 46.6574 113.772ZM45.9464 115.41H46.6844V120H45.9464V115.41ZM50.0354 113.7C50.7014 113.7 51.2144 113.844 51.5744 114.132C51.9344 114.42 52.1234 114.825 52.1234 115.329C52.1234 115.707 52.0244 116.013 51.8354 116.256C51.6374 116.499 51.3584 116.67 50.9984 116.76C51.9164 116.94 52.3844 117.435 52.3844 118.263C52.3844 118.803 52.1864 119.235 51.7904 119.541C51.3944 119.847 50.8364 120 50.0984 120H47.8034V113.7H50.0354ZM48.5864 116.436H50.0714C50.4674 116.436 50.7824 116.346 51.0074 116.166C51.2234 115.986 51.3404 115.743 51.3404 115.419C51.3404 115.104 51.2234 114.861 51.0074 114.681C50.7914 114.501 50.4764 114.411 50.0714 114.411H48.5864V116.436ZM48.5864 119.289H50.0984C50.5754 119.289 50.9444 119.199 51.1964 119.01C51.4484 118.83 51.5834 118.569 51.5834 118.236C51.5834 117.885 51.4484 117.615 51.1964 117.426C50.9354 117.237 50.5664 117.138 50.0984 117.138H48.5864V119.289Z" fill="white"/>
<path opacity="0.9" d="M35.25 154.7V161H34.494V156.554C34.404 156.635 34.26 156.671 34.062 156.671H33.045V155.996H34.071C34.215 155.996 34.323 155.951 34.395 155.852C34.467 155.753 34.512 155.618 34.512 155.456V154.7H35.25ZM39.0204 156.176C39.2634 155.69 39.6144 155.321 40.0734 155.051C40.5234 154.781 41.0544 154.646 41.6574 154.646C42.3504 154.646 42.9354 154.835 43.4034 155.213C43.8714 155.591 44.1684 156.104 44.2944 156.752H43.5204C43.3944 156.32 43.1694 155.978 42.8454 155.735C42.5124 155.492 42.1074 155.366 41.6394 155.366C41.2074 155.366 40.8204 155.474 40.4874 155.681C40.1544 155.897 39.9024 156.185 39.7224 156.563C39.5424 156.941 39.4524 157.373 39.4524 157.85C39.4524 158.336 39.5424 158.759 39.7224 159.137C39.9024 159.515 40.1544 159.812 40.4874 160.019C40.8114 160.235 41.1894 160.334 41.6214 160.334C41.9994 160.334 42.3414 160.262 42.6474 160.118C42.9534 159.974 43.1874 159.758 43.3584 159.488C43.5294 159.218 43.6194 158.894 43.6194 158.525V158.309H41.7294V157.589H44.3844V161H43.7364L43.6554 160.001C43.4754 160.289 43.2144 160.532 42.8724 160.739C42.5214 160.955 42.0984 161.054 41.6124 161.054C41.0364 161.054 40.5234 160.919 40.0734 160.649C39.6234 160.379 39.2724 160.01 39.0204 159.524C38.7684 159.038 38.6514 158.48 38.6514 157.85C38.6514 157.22 38.7684 156.662 39.0204 156.176ZM46.2121 154.772C46.3021 154.862 46.3471 154.979 46.3471 155.114C46.3471 155.258 46.3021 155.366 46.2121 155.456C46.1221 155.546 46.0051 155.591 45.8701 155.591C45.7261 155.591 45.6181 155.546 45.5281 155.456C45.4381 155.366 45.3931 155.258 45.3931 155.114C45.3931 154.979 45.4381 154.862 45.5281 154.772C45.6181 154.682 45.7261 154.637 45.8701 154.637C46.0051 154.637 46.1221 154.682 46.2121 154.772ZM45.5011 156.41H46.2391V161H45.5011V156.41ZM49.5901 154.7C50.2561 154.7 50.7691 154.844 51.1291 155.132C51.4891 155.42 51.6781 155.825 51.6781 156.329C51.6781 156.707 51.5791 157.013 51.3901 157.256C51.1921 157.499 50.9131 157.67 50.5531 157.76C51.4711 157.94 51.9391 158.435 51.9391 159.263C51.9391 159.803 51.7411 160.235 51.3451 160.541C50.9491 160.847 50.3911 161 49.6531 161H47.3581V154.7H49.5901ZM48.1411 157.436H49.6261C50.0221 157.436 50.3371 157.346 50.5621 157.166C50.7781 156.986 50.8951 156.743 50.8951 156.419C50.8951 156.104 50.7781 155.861 50.5621 155.681C50.3461 155.501 50.0311 155.411 49.6261 155.411H48.1411V157.436ZM48.1411 160.289H49.6531C50.1301 160.289 50.4991 160.199 50.7511 160.01C51.0031 159.83 51.1381 159.569 51.1381 159.236C51.1381 158.885 51.0031 158.615 50.7511 158.426C50.4901 158.237 50.1211 158.138 49.6531 158.138H48.1411V160.289Z" fill="white"/>
<path opacity="0.9" d="M25.942 198.049C26.248 198.229 26.491 198.481 26.671 198.796C26.842 199.12 26.932 199.48 26.932 199.894C26.932 200.344 26.833 200.731 26.635 201.055C26.437 201.379 26.167 201.631 25.834 201.793C25.492 201.964 25.123 202.045 24.727 202.045C24.268 202.045 23.872 201.964 23.539 201.784C23.197 201.604 22.936 201.361 22.756 201.055C22.576 200.749 22.468 200.416 22.45 200.038H23.206C23.242 200.416 23.395 200.74 23.665 200.992C23.935 201.244 24.295 201.37 24.727 201.37C24.979 201.37 25.213 201.316 25.429 201.208C25.645 201.1 25.825 200.929 25.96 200.704C26.086 200.488 26.158 200.218 26.158 199.903C26.158 199.471 26.023 199.12 25.771 198.85C25.51 198.58 25.168 198.445 24.736 198.445C24.448 198.445 24.169 198.508 23.899 198.625C23.62 198.751 23.422 198.976 23.305 199.3L22.576 199.282L22.783 195.7H26.527V196.393H23.476L23.332 198.463C23.512 198.229 23.746 198.049 24.025 197.941C24.304 197.833 24.592 197.779 24.88 197.779C25.276 197.779 25.627 197.869 25.942 198.049ZM29.4443 195.7V202H28.6883V197.554C28.5983 197.635 28.4543 197.671 28.2563 197.671H27.2393V196.996H28.2653C28.4093 196.996 28.5173 196.951 28.5893 196.852C28.6613 196.753 28.7063 196.618 28.7063 196.456V195.7H29.4443ZM32.9113 199.237C33.2623 198.931 33.5323 198.661 33.7123 198.409C33.8923 198.157 33.9823 197.878 33.9823 197.563C33.9823 197.176 33.8563 196.87 33.6043 196.645C33.3523 196.429 33.0193 196.312 32.6053 196.312C32.1913 196.312 31.8673 196.438 31.6243 196.69C31.3723 196.942 31.2553 197.284 31.2553 197.716V197.833H30.4993V197.671C30.4993 197.275 30.5803 196.924 30.7603 196.618C30.9313 196.312 31.1743 196.078 31.4983 195.898C31.8223 195.727 32.1913 195.637 32.6053 195.637C33.2713 195.637 33.8023 195.808 34.1803 196.15C34.5583 196.492 34.7563 196.951 34.7563 197.527C34.7563 197.833 34.6933 198.103 34.5763 198.346C34.4593 198.598 34.3063 198.823 34.1263 199.021C33.9373 199.219 33.6943 199.453 33.3973 199.705L31.5073 201.307H34.8013V202H30.4633V201.361L32.9113 199.237ZM38.3036 197.176C38.5466 196.69 38.8976 196.321 39.3566 196.051C39.8066 195.781 40.3376 195.646 40.9406 195.646C41.6336 195.646 42.2186 195.835 42.6866 196.213C43.1546 196.591 43.4516 197.104 43.5776 197.752H42.8036C42.6776 197.32 42.4526 196.978 42.1286 196.735C41.7956 196.492 41.3906 196.366 40.9226 196.366C40.4906 196.366 40.1036 196.474 39.7706 196.681C39.4376 196.897 39.1856 197.185 39.0056 197.563C38.8256 197.941 38.7356 198.373 38.7356 198.85C38.7356 199.336 38.8256 199.759 39.0056 200.137C39.1856 200.515 39.4376 200.812 39.7706 201.019C40.0946 201.235 40.4726 201.334 40.9046 201.334C41.2826 201.334 41.6246 201.262 41.9306 201.118C42.2366 200.974 42.4706 200.758 42.6416 200.488C42.8126 200.218 42.9026 199.894 42.9026 199.525V199.309H41.0126V198.589H43.6676V202H43.0196L42.9386 201.001C42.7586 201.289 42.4976 201.532 42.1556 201.739C41.8046 201.955 41.3816 202.054 40.8956 202.054C40.3196 202.054 39.8066 201.919 39.3566 201.649C38.9066 201.379 38.5556 201.01 38.3036 200.524C38.0516 200.038 37.9346 199.48 37.9346 198.85C37.9346 198.22 38.0516 197.662 38.3036 197.176ZM45.4953 195.772C45.5853 195.862 45.6303 195.979 45.6303 196.114C45.6303 196.258 45.5853 196.366 45.4953 196.456C45.4053 196.546 45.2883 196.591 45.1533 196.591C45.0093 196.591 44.9013 196.546 44.8113 196.456C44.7213 196.366 44.6763 196.258 44.6763 196.114C44.6763 195.979 44.7213 195.862 44.8113 195.772C44.9013 195.682 45.0093 195.637 45.1533 195.637C45.2883 195.637 45.4053 195.682 45.4953 195.772ZM44.7843 197.41H45.5223V202H44.7843V197.41ZM48.8733 195.7C49.5393 195.7 50.0523 195.844 50.4123 196.132C50.7723 196.42 50.9613 196.825 50.9613 197.329C50.9613 197.707 50.8623 198.013 50.6733 198.256C50.4753 198.499 50.1963 198.67 49.8363 198.76C50.7543 198.94 51.2223 199.435 51.2223 200.263C51.2223 200.803 51.0243 201.235 50.6283 201.541C50.2323 201.847 49.6743 202 48.9363 202H46.6413V195.7H48.8733ZM47.4243 198.436H48.9093C49.3053 198.436 49.6203 198.346 49.8453 198.166C50.0613 197.986 50.1783 197.743 50.1783 197.419C50.1783 197.104 50.0613 196.861 49.8453 196.681C49.6293 196.501 49.3143 196.411 48.9093 196.411H47.4243V198.436ZM47.4243 201.289H48.9363C49.4133 201.289 49.7823 201.199 50.0343 201.01C50.2863 200.83 50.4213 200.569 50.4213 200.236C50.4213 199.885 50.2863 199.615 50.0343 199.426C49.7733 199.237 49.4043 199.138 48.9363 199.138H47.4243V201.289Z" fill="white"/>
<path opacity="0.9" d="M30.423 239.706C30.423 239.112 30.522 238.59 30.72 238.122C30.918 237.663 31.206 237.303 31.566 237.042C31.926 236.781 32.349 236.646 32.817 236.646C33.276 236.646 33.69 236.781 34.05 237.042C34.41 237.303 34.698 237.663 34.896 238.122C35.094 238.59 35.202 239.112 35.202 239.706V239.994C35.202 240.615 35.094 241.155 34.896 241.614C34.698 242.082 34.419 242.433 34.059 242.685C33.699 242.937 33.285 243.054 32.817 243.054C32.34 243.054 31.926 242.937 31.566 242.685C31.206 242.433 30.918 242.082 30.72 241.614C30.522 241.155 30.423 240.615 30.423 239.994V239.706ZM34.23 238.455C34.095 238.095 33.906 237.825 33.663 237.627C33.42 237.438 33.141 237.339 32.817 237.339C32.493 237.339 32.205 237.438 31.962 237.627C31.71 237.825 31.521 238.095 31.386 238.455C31.251 238.815 31.188 239.247 31.188 239.733V239.967C31.188 240.462 31.251 240.885 31.386 241.245C31.521 241.605 31.71 241.884 31.962 242.073C32.205 242.271 32.493 242.361 32.817 242.361C33.141 242.361 33.42 242.271 33.663 242.073C33.906 241.884 34.095 241.605 34.23 241.245C34.365 240.885 34.437 240.462 34.437 239.967V239.733C34.437 239.247 34.365 238.815 34.23 238.455ZM38.7275 238.176C38.9705 237.69 39.3215 237.321 39.7805 237.051C40.2305 236.781 40.7615 236.646 41.3645 236.646C42.0575 236.646 42.6425 236.835 43.1105 237.213C43.5785 237.591 43.8755 238.104 44.0015 238.752H43.2275C43.1015 238.32 42.8765 237.978 42.5525 237.735C42.2195 237.492 41.8145 237.366 41.3465 237.366C40.9145 237.366 40.5275 237.474 40.1945 237.681C39.8615 237.897 39.6095 238.185 39.4295 238.563C39.2495 238.941 39.1595 239.373 39.1595 239.85C39.1595 240.336 39.2495 240.759 39.4295 241.137C39.6095 241.515 39.8615 241.812 40.1945 242.019C40.5185 242.235 40.8965 242.334 41.3285 242.334C41.7065 242.334 42.0485 242.262 42.3545 242.118C42.6605 241.974 42.8945 241.758 43.0655 241.488C43.2365 241.218 43.3265 240.894 43.3265 240.525V240.309H41.4365V239.589H44.0915V243H43.4435L43.3625 242.001C43.1825 242.289 42.9215 242.532 42.5795 242.739C42.2285 242.955 41.8055 243.054 41.3195 243.054C40.7435 243.054 40.2305 242.919 39.7805 242.649C39.3305 242.379 38.9795 242.01 38.7275 241.524C38.4755 241.038 38.3585 240.48 38.3585 239.85C38.3585 239.22 38.4755 238.662 38.7275 238.176ZM45.9191 236.772C46.0091 236.862 46.0541 236.979 46.0541 237.114C46.0541 237.258 46.0091 237.366 45.9191 237.456C45.8291 237.546 45.7121 237.591 45.5771 237.591C45.4331 237.591 45.3251 237.546 45.2351 237.456C45.1451 237.366 45.1001 237.258 45.1001 237.114C45.1001 236.979 45.1451 236.862 45.2351 236.772C45.3251 236.682 45.4331 236.637 45.5771 236.637C45.7121 236.637 45.8291 236.682 45.9191 236.772ZM45.2081 238.41H45.9461V243H45.2081V238.41ZM49.2971 236.7C49.9631 236.7 50.4761 236.844 50.8361 237.132C51.1961 237.42 51.3851 237.825 51.3851 238.329C51.3851 238.707 51.2861 239.013 51.0971 239.256C50.8991 239.499 50.6201 239.67 50.2601 239.76C51.1781 239.94 51.6461 240.435 51.6461 241.263C51.6461 241.803 51.4481 242.235 51.0521 242.541C50.6561 242.847 50.0981 243 49.3601 243H47.0651V236.7H49.2971ZM47.8481 239.436H49.3331C49.7291 239.436 50.0441 239.346 50.2691 239.166C50.4851 238.986 50.6021 238.743 50.6021 238.419C50.6021 238.104 50.4851 237.861 50.2691 237.681C50.0531 237.501 49.7381 237.411 49.3331 237.411H47.8481V239.436ZM47.8481 242.289H49.3601C49.8371 242.289 50.2061 242.199 50.4581 242.01C50.7101 241.83 50.8451 241.569 50.8451 241.236C50.8451 240.885 50.7101 240.615 50.4581 240.426C50.1971 240.237 49.8281 240.138 49.3601 240.138H47.8481V242.289Z" fill="white"/>
<path opacity="0.7" d="M80.5 256V263H79.66V258.06C79.56 258.15 79.4 258.19 79.18 258.19H78.05V257.44H79.19C79.35 257.44 79.47 257.39 79.55 257.28C79.63 257.17 79.68 257.02 79.68 256.84V256H80.5ZM86.3422 259.95C86.6222 260.24 86.7722 260.61 86.7722 261.06C86.7722 261.46 86.6622 261.81 86.4522 262.11C86.2422 262.41 85.9422 262.65 85.5622 262.81C85.1722 262.98 84.7222 263.06 84.2222 263.06C83.4422 263.06 82.8322 262.87 82.3722 262.47C81.9122 262.07 81.6822 261.53 81.6822 260.84H82.5422C82.5422 261.3 82.7022 261.66 83.0222 261.92C83.3422 262.18 83.7522 262.31 84.2722 262.31C84.7422 262.31 85.1322 262.19 85.4422 261.95C85.7522 261.71 85.9122 261.4 85.9122 261C85.9122 260.63 85.7622 260.34 85.4622 260.12C85.1622 259.91 84.7322 259.8 84.1922 259.8H83.5922V259.07H84.1422C84.6522 259.07 85.0422 258.96 85.3222 258.73C85.5922 258.51 85.7322 258.21 85.7322 257.84C85.7322 257.49 85.5922 257.21 85.3122 257C85.0322 256.8 84.6822 256.69 84.2522 256.69C83.7922 256.69 83.4222 256.81 83.1422 257.04C82.8622 257.27 82.7122 257.58 82.7122 257.97H81.8722C81.8722 257.34 82.0922 256.84 82.5222 256.48C82.9422 256.12 83.5122 255.94 84.2222 255.94C84.7022 255.94 85.1222 256.02 85.4822 256.17C85.8422 256.33 86.1122 256.54 86.3022 256.82C86.4922 257.1 86.5922 257.43 86.5922 257.79C86.5922 258.22 86.4722 258.57 86.2422 258.85C86.0022 259.13 85.6922 259.31 85.2922 259.39C85.7022 259.47 86.0522 259.66 86.3422 259.95ZM87.8583 258.35C87.9583 258.25 88.0983 258.19 88.2683 258.19C88.4283 258.19 88.5683 258.25 88.6783 258.35C88.7783 258.45 88.8383 258.59 88.8383 258.75C88.8383 258.92 88.7783 259.06 88.6783 259.16C88.5683 259.26 88.4283 259.31 88.2683 259.31C88.0983 259.31 87.9583 259.26 87.8583 259.16C87.7483 259.06 87.6983 258.92 87.6983 258.75C87.6983 258.59 87.7483 258.45 87.8583 258.35ZM87.8583 262.1C87.9583 262 88.0983 261.94 88.2683 261.94C88.4283 261.94 88.5683 262 88.6783 262.1C88.7783 262.2 88.8383 262.34 88.8383 262.5C88.8383 262.67 88.7783 262.81 88.6783 262.91C88.5683 263.01 88.4283 263.06 88.2683 263.06C88.0983 263.06 87.9583 263.01 87.8583 262.91C87.7483 262.81 87.6983 262.67 87.6983 262.5C87.6983 262.34 87.7483 262.2 87.8583 262.1ZM94.3988 259.95C94.6788 260.24 94.8288 260.61 94.8288 261.06C94.8288 261.46 94.7188 261.81 94.5088 262.11C94.2988 262.41 93.9988 262.65 93.6188 262.81C93.2288 262.98 92.7788 263.06 92.2788 263.06C91.4988 263.06 90.8888 262.87 90.4288 262.47C89.9688 262.07 89.7388 261.53 89.7388 260.84H90.5988C90.5988 261.3 90.7588 261.66 91.0788 261.92C91.3988 262.18 91.8088 262.31 92.3288 262.31C92.7988 262.31 93.1888 262.19 93.4988 261.95C93.8088 261.71 93.9688 261.4 93.9688 261C93.9688 260.63 93.8188 260.34 93.5188 260.12C93.2188 259.91 92.7888 259.8 92.2488 259.8H91.6488V259.07H92.1988C92.7088 259.07 93.0988 258.96 93.3788 258.73C93.6488 258.51 93.7888 258.21 93.7888 257.84C93.7888 257.49 93.6488 257.21 93.3688 257C93.0888 256.8 92.7388 256.69 92.3088 256.69C91.8488 256.69 91.4788 256.81 91.1988 257.04C90.9188 257.27 90.7688 257.58 90.7688 257.97H89.9288C89.9288 257.34 90.1488 256.84 90.5788 256.48C90.9988 256.12 91.5688 255.94 92.2788 255.94C92.7588 255.94 93.1788 256.02 93.5388 256.17C93.8988 256.33 94.1688 256.54 94.3588 256.82C94.5488 257.1 94.6488 257.43 94.6488 257.79C94.6488 258.22 94.5288 258.57 94.2988 258.85C94.0588 259.13 93.7488 259.31 93.3488 259.39C93.7588 259.47 94.1088 259.66 94.3988 259.95ZM95.7649 259.34C95.7649 258.68 95.8749 258.1 96.0949 257.58C96.3149 257.07 96.6349 256.67 97.0349 256.38C97.4349 256.09 97.9049 255.94 98.4249 255.94C98.9349 255.94 99.3949 256.09 99.7949 256.38C100.195 256.67 100.515 257.07 100.735 257.58C100.955 258.1 101.075 258.68 101.075 259.34V259.66C101.075 260.35 100.955 260.95 100.735 261.46C100.515 261.98 100.205 262.37 99.8049 262.65C99.4049 262.93 98.9449 263.06 98.4249 263.06C97.8949 263.06 97.4349 262.93 97.0349 262.65C96.6349 262.37 96.3149 261.98 96.0949 261.46C95.8749 260.95 95.7649 260.35 95.7649 259.66V259.34ZM99.9949 257.95C99.8449 257.55 99.6349 257.25 99.3649 257.03C99.0949 256.82 98.7849 256.71 98.4249 256.71C98.0649 256.71 97.7449 256.82 97.4749 257.03C97.1949 257.25 96.9849 257.55 96.8349 257.95C96.6849 258.35 96.6149 258.83 96.6149 259.37V259.63C96.6149 260.18 96.6849 260.65 96.8349 261.05C96.9849 261.45 97.1949 261.76 97.4749 261.97C97.7449 262.19 98.0649 262.29 98.4249 262.29C98.7849 262.29 99.0949 262.19 99.3649 261.97C99.6349 261.76 99.8449 261.45 99.9949 261.05C100.145 260.65 100.225 260.18 100.225 259.63V259.37C100.225 258.83 100.145 258.35 99.9949 257.95ZM102.165 258.35C102.265 258.25 102.405 258.19 102.575 258.19C102.735 258.19 102.875 258.25 102.985 258.35C103.085 258.45 103.145 258.59 103.145 258.75C103.145 258.92 103.085 259.06 102.985 259.16C102.875 259.26 102.735 259.31 102.575 259.31C102.405 259.31 102.265 259.26 102.165 259.16C102.055 259.06 102.005 258.92 102.005 258.75C102.005 258.59 102.055 258.45 102.165 258.35ZM102.165 262.1C102.265 262 102.405 261.94 102.575 261.94C102.735 261.94 102.875 262 102.985 262.1C103.085 262.2 103.145 262.34 103.145 262.5C103.145 262.67 103.085 262.81 102.985 262.91C102.875 263.01 102.735 263.06 102.575 263.06C102.405 263.06 102.265 263.01 102.165 262.91C102.055 262.81 102.005 262.67 102.005 262.5C102.005 262.34 102.055 262.2 102.165 262.1ZM104.075 259.34C104.075 258.68 104.185 258.1 104.405 257.58C104.625 257.07 104.945 256.67 105.345 256.38C105.745 256.09 106.215 255.94 106.735 255.94C107.245 255.94 107.705 256.09 108.105 256.38C108.505 256.67 108.825 257.07 109.045 257.58C109.265 258.1 109.385 258.68 109.385 259.34V259.66C109.385 260.35 109.265 260.95 109.045 261.46C108.825 261.98 108.515 262.37 108.115 262.65C107.715 262.93 107.255 263.06 106.735 263.06C106.205 263.06 105.745 262.93 105.345 262.65C104.945 262.37 104.625 261.98 104.405 261.46C104.185 260.95 104.075 260.35 104.075 259.66V259.34ZM108.305 257.95C108.155 257.55 107.945 257.25 107.675 257.03C107.405 256.82 107.095 256.71 106.735 256.71C106.375 256.71 106.055 256.82 105.785 257.03C105.505 257.25 105.295 257.55 105.145 257.95C104.995 258.35 104.925 258.83 104.925 259.37V259.63C104.925 260.18 104.995 260.65 105.145 261.05C105.295 261.45 105.505 261.76 105.785 261.97C106.055 262.19 106.375 262.29 106.735 262.29C107.095 262.29 107.405 262.19 107.675 261.97C107.945 261.76 108.155 261.45 108.305 261.05C108.455 260.65 108.535 260.18 108.535 259.63V259.37C108.535 258.83 108.455 258.35 108.305 257.95ZM110.325 259.34C110.325 258.68 110.435 258.1 110.655 257.58C110.875 257.07 111.195 256.67 111.595 256.38C111.995 256.09 112.465 255.94 112.985 255.94C113.495 255.94 113.955 256.09 114.355 256.38C114.755 256.67 115.075 257.07 115.295 257.58C115.515 258.1 115.635 258.68 115.635 259.34V259.66C115.635 260.35 115.515 260.95 115.295 261.46C115.075 261.98 114.765 262.37 114.365 262.65C113.965 262.93 113.505 263.06 112.985 263.06C112.455 263.06 111.995 262.93 111.595 262.65C111.195 262.37 110.875 261.98 110.655 261.46C110.435 260.95 110.325 260.35 110.325 259.66V259.34ZM114.555 257.95C114.405 257.55 114.195 257.25 113.925 257.03C113.655 256.82 113.345 256.71 112.985 256.71C112.625 256.71 112.305 256.82 112.035 257.03C111.755 257.25 111.545 257.55 111.395 257.95C111.245 258.35 111.175 258.83 111.175 259.37V259.63C111.175 260.18 111.245 260.65 111.395 261.05C111.545 261.45 111.755 261.76 112.035 261.97C112.305 262.19 112.625 262.29 112.985 262.29C113.345 262.29 113.655 262.19 113.925 261.97C114.195 261.76 114.405 261.45 114.555 261.05C114.705 260.65 114.785 260.18 114.785 259.63V259.37C114.785 258.83 114.705 258.35 114.555 257.95Z" fill="white"/>
<path opacity="0.7" d="M342.5 256V263H341.66V258.06C341.56 258.15 341.4 258.19 341.18 258.19H340.05V257.44H341.19C341.35 257.44 341.47 257.39 341.55 257.28C341.63 257.17 341.68 257.02 341.68 256.84V256H342.5ZM348.342 259.95C348.622 260.24 348.772 260.61 348.772 261.06C348.772 261.46 348.662 261.81 348.452 262.11C348.242 262.41 347.942 262.65 347.562 262.81C347.172 262.98 346.722 263.06 346.222 263.06C345.442 263.06 344.832 262.87 344.372 262.47C343.912 262.07 343.682 261.53 343.682 260.84H344.542C344.542 261.3 344.702 261.66 345.022 261.92C345.342 262.18 345.752 262.31 346.272 262.31C346.742 262.31 347.132 262.19 347.442 261.95C347.752 261.71 347.912 261.4 347.912 261C347.912 260.63 347.762 260.34 347.462 260.12C347.162 259.91 346.732 259.8 346.192 259.8H345.592V259.07H346.142C346.652 259.07 347.042 258.96 347.322 258.73C347.592 258.51 347.732 258.21 347.732 257.84C347.732 257.49 347.592 257.21 347.312 257C347.032 256.8 346.682 256.69 346.252 256.69C345.792 256.69 345.422 256.81 345.142 257.04C344.862 257.27 344.712 257.58 344.712 257.97H343.872C343.872 257.34 344.092 256.84 344.522 256.48C344.942 256.12 345.512 255.94 346.222 255.94C346.702 255.94 347.122 256.02 347.482 256.17C347.842 256.33 348.112 256.54 348.302 256.82C348.492 257.1 348.592 257.43 348.592 257.79C348.592 258.22 348.472 258.57 348.242 258.85C348.002 259.13 347.692 259.31 347.292 259.39C347.702 259.47 348.052 259.66 348.342 259.95ZM349.858 258.35C349.958 258.25 350.098 258.19 350.268 258.19C350.428 258.19 350.568 258.25 350.678 258.35C350.778 258.45 350.838 258.59 350.838 258.75C350.838 258.92 350.778 259.06 350.678 259.16C350.568 259.26 350.428 259.31 350.268 259.31C350.098 259.31 349.958 259.26 349.858 259.16C349.748 259.06 349.698 258.92 349.698 258.75C349.698 258.59 349.748 258.45 349.858 258.35ZM349.858 262.1C349.958 262 350.098 261.94 350.268 261.94C350.428 261.94 350.568 262 350.678 262.1C350.778 262.2 350.838 262.34 350.838 262.5C350.838 262.67 350.778 262.81 350.678 262.91C350.568 263.01 350.428 263.06 350.268 263.06C350.098 263.06 349.958 263.01 349.858 262.91C349.748 262.81 349.698 262.67 349.698 262.5C349.698 262.34 349.748 262.2 349.858 262.1ZM356.399 259.95C356.679 260.24 356.829 260.61 356.829 261.06C356.829 261.46 356.719 261.81 356.509 262.11C356.299 262.41 355.999 262.65 355.619 262.81C355.229 262.98 354.779 263.06 354.279 263.06C353.499 263.06 352.889 262.87 352.429 262.47C351.969 262.07 351.739 261.53 351.739 260.84H352.599C352.599 261.3 352.759 261.66 353.079 261.92C353.399 262.18 353.809 262.31 354.329 262.31C354.799 262.31 355.189 262.19 355.499 261.95C355.809 261.71 355.969 261.4 355.969 261C355.969 260.63 355.819 260.34 355.519 260.12C355.219 259.91 354.789 259.8 354.249 259.8H353.649V259.07H354.199C354.709 259.07 355.099 258.96 355.379 258.73C355.649 258.51 355.789 258.21 355.789 257.84C355.789 257.49 355.649 257.21 355.369 257C355.089 256.8 354.739 256.69 354.309 256.69C353.849 256.69 353.479 256.81 353.199 257.04C352.919 257.27 352.769 257.58 352.769 257.97H351.929C351.929 257.34 352.149 256.84 352.579 256.48C352.999 256.12 353.569 255.94 354.279 255.94C354.759 255.94 355.179 256.02 355.539 256.17C355.899 256.33 356.169 256.54 356.359 256.82C356.549 257.1 356.649 257.43 356.649 257.79C356.649 258.22 356.529 258.57 356.299 258.85C356.059 259.13 355.749 259.31 355.349 259.39C355.759 259.47 356.109 259.66 356.399 259.95ZM357.525 260.54L361.035 256H362.035V260.52H363.165V261.29H362.035V263H361.195V261.29H357.525V260.54ZM358.425 260.52H361.195V256.94L358.425 260.52ZM363.921 258.35C364.021 258.25 364.161 258.19 364.331 258.19C364.491 258.19 364.631 258.25 364.741 258.35C364.841 258.45 364.901 258.59 364.901 258.75C364.901 258.92 364.841 259.06 364.741 259.16C364.631 259.26 364.491 259.31 364.331 259.31C364.161 259.31 364.021 259.26 363.921 259.16C363.811 259.06 363.761 258.92 363.761 258.75C363.761 258.59 363.811 258.45 363.921 258.35ZM363.921 262.1C364.021 262 364.161 261.94 364.331 261.94C364.491 261.94 364.631 262 364.741 262.1C364.841 262.2 364.901 262.34 364.901 262.5C364.901 262.67 364.841 262.81 364.741 262.91C364.631 263.01 364.491 263.06 364.331 263.06C364.161 263.06 364.021 263.01 363.921 262.91C363.811 262.81 363.761 262.67 363.761 262.5C363.761 262.34 363.811 262.2 363.921 262.1ZM365.831 259.34C365.831 258.68 365.941 258.1 366.161 257.58C366.381 257.07 366.701 256.67 367.101 256.38C367.501 256.09 367.971 255.94 368.491 255.94C369.001 255.94 369.461 256.09 369.861 256.38C370.261 256.67 370.581 257.07 370.801 257.58C371.021 258.1 371.141 258.68 371.141 259.34V259.66C371.141 260.35 371.021 260.95 370.801 261.46C370.581 261.98 370.271 262.37 369.871 262.65C369.471 262.93 369.011 263.06 368.491 263.06C367.961 263.06 367.501 262.93 367.101 262.65C366.701 262.37 366.381 261.98 366.161 261.46C365.941 260.95 365.831 260.35 365.831 259.66V259.34ZM370.061 257.95C369.911 257.55 369.701 257.25 369.431 257.03C369.161 256.82 368.851 256.71 368.491 256.71C368.131 256.71 367.811 256.82 367.541 257.03C367.261 257.25 367.051 257.55 366.901 257.95C366.751 258.35 366.681 258.83 366.681 259.37V259.63C366.681 260.18 366.751 260.65 366.901 261.05C367.051 261.45 367.261 261.76 367.541 261.97C367.811 262.19 368.131 262.29 368.491 262.29C368.851 262.29 369.161 262.19 369.431 261.97C369.701 261.76 369.911 261.45 370.061 261.05C370.211 260.65 370.291 260.18 370.291 259.63V259.37C370.291 258.83 370.211 258.35 370.061 257.95ZM372.081 259.34C372.081 258.68 372.191 258.1 372.411 257.58C372.631 257.07 372.951 256.67 373.351 256.38C373.751 256.09 374.221 255.94 374.741 255.94C375.251 255.94 375.711 256.09 376.111 256.38C376.511 256.67 376.831 257.07 377.051 257.58C377.271 258.1 377.391 258.68 377.391 259.34V259.66C377.391 260.35 377.271 260.95 377.051 261.46C376.831 261.98 376.521 262.37 376.121 262.65C375.721 262.93 375.261 263.06 374.741 263.06C374.211 263.06 373.751 262.93 373.351 262.65C372.951 262.37 372.631 261.98 372.411 261.46C372.191 260.95 372.081 260.35 372.081 259.66V259.34ZM376.311 257.95C376.161 257.55 375.951 257.25 375.681 257.03C375.411 256.82 375.101 256.71 374.741 256.71C374.381 256.71 374.061 256.82 373.791 257.03C373.511 257.25 373.301 257.55 373.151 257.95C373.001 258.35 372.931 258.83 372.931 259.37V259.63C372.931 260.18 373.001 260.65 373.151 261.05C373.301 261.45 373.511 261.76 373.791 261.97C374.061 262.19 374.381 262.29 374.741 262.29C375.101 262.29 375.411 262.19 375.681 261.97C375.951 261.76 376.161 261.45 376.311 261.05C376.461 260.65 376.541 260.18 376.541 259.63V259.37C376.541 258.83 376.461 258.35 376.311 257.95Z" fill="white"/>
<rect opacity="0.3" x="69" y="200" width="314" height="44" fill="url(#paint3_linear_890_1767)"/>
<rect opacity="0.3" x="69" y="170" width="314" height="26" fill="url(#paint4_linear_890_1767)"/>
<rect opacity="0.3" x="69" y="70" width="314" height="96" fill="url(#paint5_linear_890_1767)"/>
<path d="M69 70H384" stroke="url(#paint6_linear_890_1767)" stroke-width="0.5" stroke-linecap="round"/>
<path d="M69 168H383" stroke="url(#paint7_linear_890_1767)" stroke-width="0.5" stroke-linecap="round"/>
<path d="M69 198H383" stroke="url(#paint8_linear_890_1767)" stroke-width="0.5" stroke-linecap="round"/>
<circle opacity="0.7" cx="120" cy="70" r="6" fill="#1B1D20"/>
<circle cx="120" cy="70" r="3" fill="#EC2547"/>
<circle opacity="0.7" cx="120" cy="168" r="6" fill="#1B1D20"/>
<circle cx="120" cy="168" r="3" fill="#146EF5"/>
<circle opacity="0.7" cx="120" cy="198" r="6" fill="#1B1D20"/>
<circle cx="120" cy="198" r="3" fill="#FBE30D"/>
<rect opacity="0.6" x="21" y="46" width="78.2362" height="4.34646" rx="2.17323" fill="url(#paint9_linear_890_1767)"/>
<rect opacity="0.6" x="319" y="27" width="62" height="4" rx="2" fill="url(#paint10_linear_890_1767)"/>
<rect opacity="0.6" x="341" y="36" width="40" height="4" rx="2" fill="url(#paint11_linear_890_1767)"/>
<g filter="url(#filter0_i_890_1767)">
<rect x="141" y="133" width="187" height="144" rx="3.25984" fill="url(#paint12_linear_890_1767)"/>
</g>
<rect x="141.543" y="133.543" width="185.913" height="142.913" rx="2.71654" stroke="url(#paint13_linear_890_1767)" stroke-width="1.08661"/>
<rect x="141.543" y="133.543" width="185.913" height="142.913" rx="2.71654" stroke="white" stroke-opacity="0.08" stroke-width="1.08661"/>
<rect x="141.543" y="133.543" width="185.913" height="142.913" rx="2.71654" stroke="url(#paint14_radial_890_1767)" stroke-width="1.08661"/>
<path d="M155.303 149.237C155.694 148.911 155.999 148.607 156.194 148.325C156.39 148.042 156.499 147.738 156.499 147.401C156.499 146.977 156.368 146.64 156.107 146.401C155.847 146.162 155.488 146.043 155.043 146.043C154.608 146.043 154.249 146.184 153.989 146.467C153.728 146.749 153.597 147.119 153.597 147.575V147.716H152.391V147.51C152.391 147.032 152.5 146.608 152.717 146.228C152.934 145.858 153.25 145.554 153.652 145.336C154.043 145.119 154.51 145.011 155.043 145.011C155.89 145.011 156.542 145.228 157.02 145.652C157.487 146.075 157.726 146.64 157.726 147.347C157.726 147.868 157.585 148.314 157.324 148.705C157.053 149.096 156.651 149.509 156.118 149.955L154.097 151.639H157.77V152.693H152.38V151.726L155.303 149.237ZM158.653 148.716C158.653 147.999 158.773 147.358 159.023 146.793C159.273 146.228 159.631 145.793 160.088 145.489C160.544 145.184 161.066 145.021 161.653 145.021C162.228 145.021 162.739 145.184 163.196 145.489C163.652 145.793 164 146.228 164.26 146.793C164.51 147.358 164.641 147.999 164.641 148.716V149.064C164.641 149.824 164.51 150.476 164.26 151.03C164.01 151.595 163.663 152.019 163.206 152.313C162.75 152.617 162.239 152.758 161.653 152.758C161.055 152.758 160.533 152.617 160.077 152.313C159.621 152.019 159.273 151.595 159.023 151.03C158.773 150.476 158.653 149.824 158.653 149.064V148.716ZM162.946 146.793C162.62 146.314 162.196 146.075 161.653 146.075C161.109 146.075 160.675 146.314 160.349 146.793C160.023 147.271 159.86 147.923 159.86 148.759V149.02C159.86 149.868 160.023 150.52 160.349 150.998C160.675 151.476 161.109 151.704 161.653 151.704C162.196 151.704 162.62 151.476 162.946 150.998C163.272 150.52 163.435 149.868 163.435 149.02V148.759C163.435 147.923 163.272 147.271 162.946 146.793ZM168.398 149.237C168.789 148.911 169.093 148.607 169.289 148.325C169.484 148.042 169.593 147.738 169.593 147.401C169.593 146.977 169.463 146.64 169.202 146.401C168.941 146.162 168.583 146.043 168.137 146.043C167.702 146.043 167.344 146.184 167.083 146.467C166.822 146.749 166.692 147.119 166.692 147.575V147.716H165.486V147.51C165.486 147.032 165.594 146.608 165.812 146.228C166.029 145.858 166.344 145.554 166.746 145.336C167.137 145.119 167.605 145.011 168.137 145.011C168.985 145.011 169.637 145.228 170.115 145.652C170.582 146.075 170.821 146.64 170.821 147.347C170.821 147.868 170.68 148.314 170.419 148.705C170.147 149.096 169.745 149.509 169.213 149.955L167.192 151.639H170.864V152.693H165.475V151.726L168.398 149.237ZM171.393 149.911L175.011 145.087H176.467V149.889H177.619V150.933H176.467V152.693H175.283V150.933H171.393V149.911ZM172.599 149.889H175.283V146.325L172.599 149.889ZM178.371 150.085V149.129H182.065V150.085H178.371ZM183.028 148.716C183.028 147.999 183.148 147.358 183.397 146.793C183.647 146.228 184.006 145.793 184.462 145.489C184.919 145.184 185.44 145.021 186.027 145.021C186.603 145.021 187.114 145.184 187.57 145.489C188.026 145.793 188.374 146.228 188.635 146.793C188.885 147.358 189.015 147.999 189.015 148.716V149.064C189.015 149.824 188.885 150.476 188.635 151.03C188.385 151.595 188.037 152.019 187.581 152.313C187.125 152.617 186.614 152.758 186.027 152.758C185.429 152.758 184.908 152.617 184.451 152.313C183.995 152.019 183.647 151.595 183.397 151.03C183.148 150.476 183.028 149.824 183.028 149.064V148.716ZM187.32 146.793C186.994 146.314 186.57 146.075 186.027 146.075C185.484 146.075 185.049 146.314 184.723 146.793C184.397 147.271 184.234 147.923 184.234 148.759V149.02C184.234 149.868 184.397 150.52 184.723 150.998C185.049 151.476 185.484 151.704 186.027 151.704C186.57 151.704 186.994 151.476 187.32 150.998C187.646 150.52 187.809 149.868 187.809 149.02V148.759C187.809 147.923 187.646 147.271 187.32 146.793ZM189.708 149.911L193.327 145.087H194.783V149.889H195.934V150.933H194.783V152.693H193.598V150.933H189.708V149.911ZM190.914 149.889H193.598V146.325L190.914 149.889ZM196.686 150.085V149.129H200.381V150.085H196.686ZM203.755 149.237C204.146 148.911 204.451 148.607 204.646 148.325C204.842 148.042 204.951 147.738 204.951 147.401C204.951 146.977 204.82 146.64 204.559 146.401C204.299 146.162 203.94 146.043 203.494 146.043C203.06 146.043 202.701 146.184 202.44 146.467C202.18 146.749 202.049 147.119 202.049 147.575V147.716H200.843V147.51C200.843 147.032 200.952 146.608 201.169 146.228C201.386 145.858 201.702 145.554 202.104 145.336C202.495 145.119 202.962 145.011 203.494 145.011C204.342 145.011 204.994 145.228 205.472 145.652C205.939 146.075 206.178 146.64 206.178 147.347C206.178 147.868 206.037 148.314 205.776 148.705C205.505 149.096 205.103 149.509 204.57 149.955L202.549 151.639H206.222V152.693H200.832V151.726L203.755 149.237ZM209.931 149.237C210.322 148.911 210.627 148.607 210.822 148.325C211.018 148.042 211.126 147.738 211.126 147.401C211.126 146.977 210.996 146.64 210.735 146.401C210.474 146.162 210.116 146.043 209.67 146.043C209.236 146.043 208.877 146.184 208.616 146.467C208.356 146.749 208.225 147.119 208.225 147.575V147.716H207.019V147.51C207.019 147.032 207.128 146.608 207.345 146.228C207.562 145.858 207.877 145.554 208.279 145.336C208.671 145.119 209.138 145.011 209.67 145.011C210.518 145.011 211.17 145.228 211.648 145.652C212.115 146.075 212.354 146.64 212.354 147.347C212.354 147.868 212.213 148.314 211.952 148.705C211.681 149.096 211.279 149.509 210.746 149.955L208.725 151.639H212.398V152.693H207.008V151.726L209.931 149.237ZM218.593 145.087V152.693H217.398V147.553C217.289 147.618 217.126 147.651 216.92 147.651H215.67V146.63H216.866C217.039 146.63 217.181 146.564 217.279 146.434C217.365 146.304 217.42 146.141 217.42 145.923V145.087H218.593ZM224.98 149.368C225.295 149.672 225.458 150.074 225.458 150.574C225.458 151.009 225.338 151.4 225.099 151.726C224.86 152.052 224.534 152.313 224.1 152.486C223.665 152.671 223.165 152.758 222.6 152.758C221.731 152.758 221.035 152.541 220.525 152.095C220.014 151.65 219.764 151.041 219.764 150.259H220.97C220.97 150.726 221.133 151.096 221.448 151.356C221.753 151.628 222.166 151.758 222.676 151.758C223.122 151.758 223.491 151.65 223.785 151.411C224.078 151.182 224.23 150.878 224.23 150.487C224.23 150.128 224.078 149.846 223.795 149.639C223.513 149.433 223.1 149.324 222.578 149.324H221.883V148.325H222.502C223.002 148.325 223.383 148.216 223.643 147.999C223.904 147.781 224.045 147.499 224.045 147.129C224.045 146.793 223.915 146.521 223.654 146.325C223.393 146.13 223.057 146.021 222.644 146.021C222.209 146.021 221.85 146.141 221.568 146.369C221.285 146.597 221.144 146.901 221.144 147.292H219.96C219.96 146.597 220.21 146.043 220.688 145.63C221.166 145.228 221.796 145.021 222.6 145.021C223.144 145.021 223.622 145.108 224.024 145.271C224.426 145.445 224.73 145.684 224.947 145.988C225.165 146.293 225.273 146.651 225.273 147.042C225.273 147.499 225.132 147.879 224.871 148.173C224.61 148.466 224.252 148.662 223.806 148.759C224.274 148.857 224.665 149.064 224.98 149.368ZM226.593 147.542C226.734 147.412 226.919 147.336 227.136 147.336C227.354 147.336 227.528 147.412 227.68 147.542C227.821 147.684 227.897 147.857 227.897 148.075C227.897 148.292 227.821 148.477 227.68 148.607C227.528 148.748 227.354 148.814 227.136 148.814C226.919 148.814 226.734 148.748 226.593 148.607C226.452 148.477 226.387 148.292 226.387 148.075C226.387 147.857 226.452 147.684 226.593 147.542ZM226.593 151.487C226.734 151.356 226.919 151.28 227.136 151.28C227.354 151.28 227.528 151.356 227.68 151.487C227.821 151.628 227.897 151.802 227.897 152.019C227.897 152.236 227.821 152.421 227.68 152.552C227.528 152.693 227.354 152.758 227.136 152.758C226.919 152.758 226.734 152.693 226.593 152.552C226.452 152.421 226.387 152.236 226.387 152.019C226.387 151.802 226.452 151.628 226.593 151.487ZM233.989 149.368C234.304 149.672 234.467 150.074 234.467 150.574C234.467 151.009 234.348 151.4 234.109 151.726C233.87 152.052 233.544 152.313 233.109 152.486C232.674 152.671 232.174 152.758 231.609 152.758C230.74 152.758 230.045 152.541 229.534 152.095C229.023 151.65 228.773 151.041 228.773 150.259H229.979C229.979 150.726 230.142 151.096 230.458 151.356C230.762 151.628 231.175 151.758 231.685 151.758C232.131 151.758 232.5 151.65 232.794 151.411C233.087 151.182 233.239 150.878 233.239 150.487C233.239 150.128 233.087 149.846 232.805 149.639C232.522 149.433 232.109 149.324 231.588 149.324H230.892V148.325H231.512C232.011 148.325 232.392 148.216 232.652 147.999C232.913 147.781 233.055 147.499 233.055 147.129C233.055 146.793 232.924 146.521 232.663 146.325C232.403 146.13 232.066 146.021 231.653 146.021C231.218 146.021 230.86 146.141 230.577 146.369C230.295 146.597 230.153 146.901 230.153 147.292H228.969C228.969 146.597 229.219 146.043 229.697 145.63C230.175 145.228 230.805 145.021 231.609 145.021C232.153 145.021 232.631 145.108 233.033 145.271C233.435 145.445 233.739 145.684 233.956 145.988C234.174 146.293 234.282 146.651 234.282 147.042C234.282 147.499 234.141 147.879 233.88 148.173C233.62 148.466 233.261 148.662 232.815 148.759C233.283 148.857 233.674 149.064 233.989 149.368ZM235.385 148.716C235.385 147.999 235.505 147.358 235.754 146.793C236.004 146.228 236.363 145.793 236.819 145.489C237.276 145.184 237.797 145.021 238.384 145.021C238.96 145.021 239.471 145.184 239.927 145.489C240.383 145.793 240.731 146.228 240.992 146.793C241.242 147.358 241.372 147.999 241.372 148.716V149.064C241.372 149.824 241.242 150.476 240.992 151.03C240.742 151.595 240.394 152.019 239.938 152.313C239.482 152.617 238.971 152.758 238.384 152.758C237.786 152.758 237.265 152.617 236.808 152.313C236.352 152.019 236.004 151.595 235.754 151.03C235.505 150.476 235.385 149.824 235.385 149.064V148.716ZM239.677 146.793C239.351 146.314 238.927 146.075 238.384 146.075C237.841 146.075 237.406 146.314 237.08 146.793C236.754 147.271 236.591 147.923 236.591 148.759V149.02C236.591 149.868 236.754 150.52 237.08 150.998C237.406 151.476 237.841 151.704 238.384 151.704C238.927 151.704 239.351 151.476 239.677 150.998C240.003 150.52 240.166 149.868 240.166 149.02V148.759C240.166 147.923 240.003 147.271 239.677 146.793ZM242.5 147.542C242.641 147.412 242.826 147.336 243.043 147.336C243.26 147.336 243.434 147.412 243.586 147.542C243.728 147.684 243.804 147.857 243.804 148.075C243.804 148.292 243.728 148.477 243.586 148.607C243.434 148.748 243.26 148.814 243.043 148.814C242.826 148.814 242.641 148.748 242.5 148.607C242.359 148.477 242.293 148.292 242.293 148.075C242.293 147.857 242.359 147.684 242.5 147.542ZM242.5 151.487C242.641 151.356 242.826 151.28 243.043 151.28C243.26 151.28 243.434 151.356 243.586 151.487C243.728 151.628 243.804 151.802 243.804 152.019C243.804 152.236 243.728 152.421 243.586 152.552C243.434 152.693 243.26 152.758 243.043 152.758C242.826 152.758 242.641 152.693 242.5 152.552C242.359 152.421 242.293 152.236 242.293 152.019C242.293 151.802 242.359 151.628 242.5 151.487ZM249.896 149.368C250.211 149.672 250.374 150.074 250.374 150.574C250.374 151.009 250.254 151.4 250.015 151.726C249.776 152.052 249.45 152.313 249.015 152.486C248.581 152.671 248.081 152.758 247.516 152.758C246.647 152.758 245.951 152.541 245.44 152.095C244.93 151.65 244.68 151.041 244.68 150.259H245.886C245.886 150.726 246.049 151.096 246.364 151.356C246.668 151.628 247.081 151.758 247.592 151.758C248.038 151.758 248.407 151.65 248.7 151.411C248.994 151.182 249.146 150.878 249.146 150.487C249.146 150.128 248.994 149.846 248.711 149.639C248.429 149.433 248.016 149.324 247.494 149.324H246.799V148.325H247.418C247.918 148.325 248.298 148.216 248.559 147.999C248.82 147.781 248.961 147.499 248.961 147.129C248.961 146.793 248.831 146.521 248.57 146.325C248.309 146.13 247.972 146.021 247.559 146.021C247.125 146.021 246.766 146.141 246.484 146.369C246.201 146.597 246.06 146.901 246.06 147.292H244.875C244.875 146.597 245.125 146.043 245.603 145.63C246.082 145.228 246.712 145.021 247.516 145.021C248.059 145.021 248.537 145.108 248.939 145.271C249.341 145.445 249.646 145.684 249.863 145.988C250.08 146.293 250.189 146.651 250.189 147.042C250.189 147.499 250.048 147.879 249.787 148.173C249.526 148.466 249.168 148.662 248.722 148.759C249.189 148.857 249.58 149.064 249.896 149.368ZM251.292 148.716C251.292 147.999 251.411 147.358 251.661 146.793C251.911 146.228 252.27 145.793 252.726 145.489C253.182 145.184 253.704 145.021 254.291 145.021C254.867 145.021 255.377 145.184 255.834 145.489C256.29 145.793 256.638 146.228 256.899 146.793C257.148 147.358 257.279 147.999 257.279 148.716V149.064C257.279 149.824 257.148 150.476 256.899 151.03C256.649 151.595 256.301 152.019 255.844 152.313C255.388 152.617 254.877 152.758 254.291 152.758C253.693 152.758 253.171 152.617 252.715 152.313C252.259 152.019 251.911 151.595 251.661 151.03C251.411 150.476 251.292 149.824 251.292 149.064V148.716ZM255.584 146.793C255.258 146.314 254.834 146.075 254.291 146.075C253.747 146.075 253.313 146.314 252.987 146.793C252.661 147.271 252.498 147.923 252.498 148.759V149.02C252.498 149.868 252.661 150.52 252.987 150.998C253.313 151.476 253.747 151.704 254.291 151.704C254.834 151.704 255.258 151.476 255.584 150.998C255.91 150.52 256.073 149.868 256.073 149.02V148.759C256.073 147.923 255.91 147.271 255.584 146.793Z" fill="white"/>
<path d="M146 162L326 162" stroke="#2E2E2E" stroke-width="1.08661"/>
<path opacity="0.9" d="M171.913 173.915C172.313 173.915 172.661 173.993 172.974 174.15C173.278 174.306 173.513 174.523 173.686 174.802C173.852 175.08 173.938 175.41 173.938 175.784C173.938 176.21 173.817 176.575 173.582 176.888C173.347 177.201 173.034 177.41 172.643 177.514L174.008 180H173.156L171.896 177.662H170.34V180H169.583V173.915H171.913ZM170.34 176.966H171.852C172.252 176.966 172.565 176.862 172.808 176.645C173.043 176.436 173.165 176.149 173.165 175.784C173.165 175.436 173.043 175.149 172.808 174.932C172.565 174.723 172.252 174.61 171.861 174.61H170.34V176.966ZM174.283 180L176.604 173.915H177.5L179.812 180H179.003L178.36 178.357H175.709L175.066 180H174.283ZM175.935 177.67H178.134L177.03 174.741L175.935 177.67ZM180.5 173.915H181.457L183.612 178.966L185.742 173.915H186.681V180H185.942V175.202L183.925 180H183.256L181.239 175.202V180H180.5V173.915ZM189.762 173.915H194.465V174.61H192.491V180H191.735V174.61H189.762V173.915ZM195.282 179.765C194.951 179.574 194.69 179.313 194.508 178.966C194.317 178.627 194.23 178.235 194.23 177.783C194.23 177.34 194.317 176.949 194.508 176.601C194.69 176.262 194.951 175.993 195.282 175.801C195.612 175.61 195.994 175.514 196.429 175.514C196.855 175.514 197.238 175.61 197.568 175.801C197.898 175.993 198.159 176.262 198.35 176.601C198.533 176.949 198.628 177.34 198.628 177.783C198.628 178.235 198.533 178.627 198.35 178.966C198.159 179.313 197.898 179.574 197.568 179.765C197.238 179.957 196.855 180.052 196.429 180.052C195.994 180.052 195.612 179.957 195.282 179.765ZM197.194 179.209C197.42 179.07 197.594 178.879 197.716 178.627C197.837 178.383 197.898 178.096 197.898 177.783C197.898 177.47 197.837 177.192 197.716 176.94C197.594 176.697 197.42 176.497 197.194 176.358C196.968 176.219 196.716 176.149 196.429 176.149C196.134 176.149 195.881 176.219 195.655 176.358C195.429 176.497 195.264 176.697 195.143 176.94C195.021 177.192 194.96 177.47 194.96 177.783C194.96 178.096 195.021 178.383 195.143 178.627C195.264 178.879 195.429 179.07 195.655 179.209C195.881 179.348 196.134 179.418 196.429 179.418C196.716 179.418 196.968 179.348 197.194 179.209ZM199.69 176.219H198.891V175.567H199.69V174.324H200.403V175.567H201.525V176.219H200.403V178.835C200.403 179.026 200.438 179.157 200.508 179.235C200.577 179.313 200.707 179.348 200.89 179.348H201.664V180H200.847C200.429 180 200.125 179.913 199.951 179.722C199.777 179.539 199.69 179.244 199.69 178.844V176.219ZM206.249 179.348V180H205.858C205.571 180 205.371 179.948 205.25 179.826C205.128 179.713 205.058 179.539 205.058 179.313C204.711 179.809 204.215 180.052 203.572 180.052C203.076 180.052 202.677 179.939 202.381 179.704C202.085 179.478 201.938 179.157 201.938 178.757C201.938 178.314 202.085 177.975 202.39 177.731C202.694 177.496 203.137 177.375 203.72 177.375H205.024V177.07C205.024 176.784 204.919 176.558 204.728 176.392C204.537 176.236 204.267 176.149 203.92 176.149C203.607 176.149 203.355 176.219 203.155 176.358C202.955 176.497 202.833 176.671 202.79 176.897H202.077C202.129 176.462 202.32 176.123 202.651 175.88C202.981 175.636 203.416 175.514 203.954 175.514C204.52 175.514 204.954 175.654 205.267 175.932C205.58 176.21 205.737 176.601 205.737 177.114V179.026C205.737 179.244 205.832 179.348 206.032 179.348H206.249ZM205.024 177.975H203.65C202.99 177.975 202.659 178.227 202.659 178.713C202.659 178.939 202.746 179.113 202.92 179.244C203.094 179.383 203.329 179.444 203.624 179.444C204.059 179.444 204.398 179.331 204.65 179.105C204.893 178.879 205.024 178.574 205.024 178.192V177.975ZM206.797 173.915H207.51V180H206.797V173.915Z" fill="white"/>
<path opacity="0.9" d="M292.52 177.331C292.859 177.036 293.12 176.775 293.294 176.532C293.467 176.288 293.554 176.019 293.554 175.714C293.554 175.341 293.433 175.045 293.189 174.828C292.946 174.619 292.624 174.506 292.224 174.506C291.825 174.506 291.512 174.628 291.277 174.871C291.033 175.115 290.92 175.445 290.92 175.862V175.975H290.19V175.819C290.19 175.436 290.268 175.097 290.442 174.802C290.608 174.506 290.842 174.28 291.155 174.106C291.468 173.941 291.825 173.854 292.224 173.854C292.868 173.854 293.381 174.019 293.746 174.35C294.111 174.68 294.302 175.123 294.302 175.68C294.302 175.975 294.241 176.236 294.128 176.471C294.015 176.714 293.867 176.931 293.693 177.123C293.511 177.314 293.276 177.54 292.989 177.783L291.164 179.331H294.345V180H290.155V179.383L292.52 177.331ZM297.728 175.341C297.963 174.871 298.302 174.515 298.745 174.254C299.18 173.993 299.693 173.863 300.275 173.863C300.945 173.863 301.51 174.045 301.962 174.41C302.414 174.776 302.701 175.271 302.822 175.897H302.075C301.953 175.48 301.736 175.149 301.423 174.915C301.101 174.68 300.71 174.558 300.258 174.558C299.841 174.558 299.467 174.663 299.145 174.862C298.824 175.071 298.58 175.349 298.406 175.714C298.232 176.079 298.146 176.497 298.146 176.957C298.146 177.427 298.232 177.835 298.406 178.201C298.58 178.566 298.824 178.853 299.145 179.052C299.458 179.261 299.823 179.357 300.241 179.357C300.606 179.357 300.936 179.287 301.232 179.148C301.527 179.009 301.753 178.8 301.918 178.54C302.083 178.279 302.17 177.966 302.17 177.609V177.401H300.345V176.705H302.909V180H302.283L302.205 179.035C302.031 179.313 301.779 179.548 301.449 179.748C301.11 179.957 300.701 180.052 300.232 180.052C299.676 180.052 299.18 179.922 298.745 179.661C298.311 179.4 297.972 179.044 297.728 178.574C297.485 178.105 297.372 177.566 297.372 176.957C297.372 176.349 297.485 175.81 297.728 175.341ZM304.675 173.985C304.761 174.071 304.805 174.184 304.805 174.315C304.805 174.454 304.761 174.558 304.675 174.645C304.588 174.732 304.475 174.776 304.344 174.776C304.205 174.776 304.101 174.732 304.014 174.645C303.927 174.558 303.883 174.454 303.883 174.315C303.883 174.184 303.927 174.071 304.014 173.985C304.101 173.898 304.205 173.854 304.344 173.854C304.475 173.854 304.588 173.898 304.675 173.985ZM303.988 175.567H304.701V180H303.988V175.567ZM307.937 173.915C308.581 173.915 309.076 174.054 309.424 174.332C309.772 174.61 309.954 175.002 309.954 175.488C309.954 175.853 309.858 176.149 309.676 176.384C309.485 176.618 309.215 176.784 308.867 176.871C309.754 177.044 310.206 177.523 310.206 178.322C310.206 178.844 310.015 179.261 309.632 179.557C309.25 179.852 308.711 180 307.998 180H305.781V173.915H307.937ZM306.538 176.558H307.972C308.355 176.558 308.659 176.471 308.876 176.297C309.085 176.123 309.198 175.888 309.198 175.575C309.198 175.271 309.085 175.036 308.876 174.862C308.668 174.689 308.363 174.602 307.972 174.602H306.538V176.558ZM306.538 179.313H307.998C308.459 179.313 308.815 179.226 309.059 179.044C309.302 178.87 309.432 178.618 309.432 178.296C309.432 177.957 309.302 177.696 309.059 177.514C308.807 177.331 308.45 177.236 307.998 177.236H306.538V179.313Z" fill="white"/>
<circle cx="154.583" cy="176.89" r="2.71654" fill="white"/>
<path opacity="0.9" d="M280.685 200.862L283.736 196.915H284.605V200.844H285.587V201.514H284.605V203H283.875V201.514H280.685V200.862ZM281.467 200.844H283.875V197.732L281.467 200.844ZM290.502 198.801C290.589 199.158 290.632 199.532 290.632 199.931C290.632 200.575 290.537 201.122 290.354 201.592C290.172 202.061 289.911 202.426 289.563 202.678C289.215 202.93 288.798 203.052 288.32 203.052C287.764 203.052 287.312 202.904 286.955 202.6C286.599 202.296 286.381 201.887 286.312 201.374H287.042C287.112 201.696 287.251 201.948 287.477 202.131C287.703 202.322 287.99 202.409 288.355 202.409C288.876 202.409 289.276 202.2 289.563 201.766C289.85 201.34 289.998 200.775 289.998 200.07L289.989 199.775C289.972 199.853 289.954 199.905 289.937 199.94C289.798 200.253 289.58 200.496 289.285 200.67C288.989 200.853 288.642 200.94 288.242 200.94C287.842 200.94 287.485 200.862 287.181 200.688C286.868 200.523 286.634 200.288 286.46 199.975C286.286 199.671 286.199 199.314 286.199 198.906C286.199 198.523 286.286 198.175 286.468 197.862C286.642 197.55 286.894 197.306 287.216 197.132C287.529 196.958 287.894 196.863 288.311 196.863C288.72 196.863 289.076 196.958 289.389 197.132C289.702 197.306 289.954 197.558 290.154 197.871C290.302 198.141 290.415 198.454 290.502 198.801ZM287.294 199.914C287.538 200.175 287.877 200.297 288.294 200.297C288.711 200.297 289.059 200.166 289.32 199.905C289.58 199.645 289.711 199.306 289.711 198.888C289.711 198.48 289.58 198.149 289.328 197.889C289.068 197.636 288.737 197.506 288.32 197.506C287.903 197.506 287.564 197.636 287.312 197.897C287.051 198.158 286.929 198.497 286.929 198.906C286.929 199.323 287.051 199.653 287.294 199.914ZM293.74 200.331C294.079 200.036 294.34 199.775 294.514 199.532C294.688 199.288 294.775 199.019 294.775 198.714C294.775 198.341 294.653 198.045 294.41 197.828C294.166 197.619 293.844 197.506 293.445 197.506C293.045 197.506 292.732 197.628 292.497 197.871C292.254 198.115 292.141 198.445 292.141 198.862V198.975H291.41V198.819C291.41 198.436 291.489 198.097 291.663 197.802C291.828 197.506 292.062 197.28 292.375 197.106C292.688 196.941 293.045 196.854 293.445 196.854C294.088 196.854 294.601 197.019 294.966 197.35C295.331 197.68 295.522 198.123 295.522 198.68C295.522 198.975 295.461 199.236 295.348 199.471C295.235 199.714 295.088 199.931 294.914 200.123C294.731 200.314 294.496 200.54 294.21 200.783L292.384 202.331H295.566V203H291.376V202.383L293.74 200.331ZM298.949 198.341C299.183 197.871 299.522 197.515 299.966 197.254C300.4 196.993 300.913 196.863 301.496 196.863C302.165 196.863 302.73 197.045 303.182 197.41C303.634 197.776 303.921 198.271 304.043 198.897H303.295C303.173 198.48 302.956 198.149 302.643 197.915C302.321 197.68 301.93 197.558 301.478 197.558C301.061 197.558 300.687 197.663 300.365 197.862C300.044 198.071 299.8 198.349 299.627 198.714C299.453 199.079 299.366 199.497 299.366 199.957C299.366 200.427 299.453 200.835 299.627 201.201C299.8 201.566 300.044 201.853 300.365 202.052C300.678 202.261 301.044 202.357 301.461 202.357C301.826 202.357 302.156 202.287 302.452 202.148C302.747 202.009 302.973 201.8 303.139 201.54C303.304 201.279 303.391 200.966 303.391 200.609V200.401H301.565V199.705H304.129V203H303.504L303.425 202.035C303.252 202.313 302.999 202.548 302.669 202.748C302.33 202.957 301.921 203.052 301.452 203.052C300.896 203.052 300.4 202.922 299.966 202.661C299.531 202.4 299.192 202.044 298.949 201.574C298.705 201.105 298.592 200.566 298.592 199.957C298.592 199.349 298.705 198.81 298.949 198.341ZM305.895 196.985C305.982 197.071 306.025 197.184 306.025 197.315C306.025 197.454 305.982 197.558 305.895 197.645C305.808 197.732 305.695 197.776 305.564 197.776C305.425 197.776 305.321 197.732 305.234 197.645C305.147 197.558 305.104 197.454 305.104 197.315C305.104 197.184 305.147 197.071 305.234 196.985C305.321 196.898 305.425 196.854 305.564 196.854C305.695 196.854 305.808 196.898 305.895 196.985ZM305.208 198.567H305.921V203H305.208V198.567ZM309.158 196.915C309.801 196.915 310.296 197.054 310.644 197.332C310.992 197.61 311.174 198.002 311.174 198.488C311.174 198.853 311.079 199.149 310.896 199.384C310.705 199.618 310.435 199.784 310.088 199.871C310.974 200.044 311.426 200.523 311.426 201.322C311.426 201.844 311.235 202.261 310.853 202.557C310.47 202.852 309.931 203 309.218 203H307.002V196.915H309.158ZM307.758 199.558H309.192C309.575 199.558 309.879 199.471 310.096 199.297C310.305 199.123 310.418 198.888 310.418 198.575C310.418 198.271 310.305 198.036 310.096 197.862C309.888 197.689 309.583 197.602 309.192 197.602H307.758V199.558ZM307.758 202.313H309.218C309.679 202.313 310.036 202.226 310.279 202.044C310.522 201.87 310.653 201.618 310.653 201.296C310.653 200.957 310.522 200.696 310.279 200.514C310.027 200.331 309.67 200.236 309.218 200.236H307.758V202.313Z" fill="white"/>
<path opacity="0.9" d="M171.913 196.915C172.313 196.915 172.661 196.993 172.974 197.15C173.278 197.306 173.513 197.523 173.686 197.802C173.852 198.08 173.938 198.41 173.938 198.784C173.938 199.21 173.817 199.575 173.582 199.888C173.347 200.201 173.034 200.41 172.643 200.514L174.008 203H173.156L171.896 200.662H170.34V203H169.583V196.915H171.913ZM170.34 199.966H171.852C172.252 199.966 172.565 199.862 172.808 199.645C173.043 199.436 173.165 199.149 173.165 198.784C173.165 198.436 173.043 198.149 172.808 197.932C172.565 197.723 172.252 197.61 171.861 197.61H170.34V199.966ZM174.283 203L176.604 196.915H177.5L179.812 203H179.003L178.36 201.357H175.709L175.066 203H174.283ZM175.935 200.67H178.134L177.03 197.741L175.935 200.67ZM180.5 196.915H181.457L183.612 201.966L185.742 196.915H186.681V203H185.942V198.202L183.925 203H183.256L181.239 198.202V203H180.5V196.915ZM190.857 196.915V200.444C190.857 201.722 191.37 202.357 192.413 202.357C193.456 202.357 193.987 201.722 193.987 200.444V196.915H194.743V200.401C194.743 201.27 194.543 201.931 194.143 202.383C193.743 202.835 193.169 203.052 192.413 203.052C191.648 203.052 191.074 202.835 190.683 202.383C190.292 201.931 190.101 201.27 190.101 200.401V196.915H190.857ZM196.343 201.54C196.352 201.809 196.465 202.026 196.691 202.192C196.917 202.365 197.204 202.444 197.56 202.444C197.873 202.444 198.125 202.383 198.317 202.261C198.508 202.139 198.612 201.974 198.612 201.766C198.612 201.592 198.56 201.461 198.473 201.366C198.377 201.279 198.256 201.209 198.108 201.174C197.96 201.14 197.752 201.105 197.482 201.07C197.1 201.027 196.787 200.966 196.543 200.888C196.3 200.818 196.1 200.696 195.952 200.531C195.796 200.366 195.726 200.14 195.726 199.844C195.726 199.584 195.796 199.358 195.943 199.149C196.091 198.949 196.291 198.793 196.552 198.68C196.804 198.567 197.091 198.506 197.413 198.506C197.934 198.506 198.351 198.627 198.682 198.871C199.012 199.114 199.195 199.462 199.229 199.914H198.517C198.482 199.688 198.369 199.497 198.177 199.34C197.978 199.193 197.734 199.114 197.439 199.114C197.134 199.114 196.891 199.184 196.708 199.306C196.517 199.427 196.43 199.592 196.43 199.792C196.43 199.949 196.474 200.062 196.561 200.14C196.648 200.227 196.752 200.279 196.891 200.305C197.03 200.34 197.239 200.366 197.517 200.401C197.899 200.453 198.221 200.514 198.473 200.592C198.725 200.679 198.925 200.809 199.082 200.983C199.238 201.166 199.316 201.409 199.316 201.713C199.316 201.983 199.238 202.218 199.082 202.418C198.925 202.626 198.708 202.783 198.447 202.887C198.177 203 197.882 203.052 197.56 203.052C196.978 203.052 196.508 202.922 196.161 202.652C195.813 202.391 195.63 202.018 195.63 201.54H196.343ZM200.229 199.592C200.403 199.253 200.655 198.993 200.977 198.801C201.29 198.61 201.655 198.514 202.072 198.514C202.472 198.514 202.837 198.601 203.15 198.767C203.463 198.94 203.706 199.184 203.889 199.497C204.063 199.818 204.158 200.192 204.176 200.618C204.176 200.688 204.167 200.783 204.158 200.922H200.716V200.983C200.725 201.418 200.855 201.766 201.116 202.026C201.368 202.287 201.698 202.418 202.116 202.418C202.429 202.418 202.698 202.339 202.924 202.183C203.15 202.026 203.298 201.8 203.376 201.514H204.098C204.011 201.966 203.793 202.339 203.446 202.626C203.098 202.913 202.672 203.052 202.168 203.052C201.724 203.052 201.342 202.965 201.012 202.774C200.681 202.583 200.42 202.322 200.238 201.974C200.055 201.627 199.968 201.235 199.968 200.783C199.968 200.331 200.055 199.94 200.229 199.592ZM203.437 200.331C203.402 199.957 203.254 199.662 203.011 199.453C202.768 199.245 202.455 199.14 202.081 199.14C201.742 199.14 201.446 199.253 201.194 199.471C200.933 199.697 200.794 199.984 200.759 200.331H203.437ZM209.197 196.915V203H208.579L208.484 202.287C208.11 202.8 207.606 203.052 206.962 203.052C206.545 203.052 206.18 202.965 205.858 202.783C205.537 202.609 205.285 202.348 205.102 202C204.92 201.661 204.833 201.253 204.833 200.783C204.833 200.34 204.92 199.949 205.102 199.601C205.285 199.262 205.537 198.993 205.867 198.801C206.189 198.61 206.554 198.514 206.962 198.514C207.319 198.514 207.623 198.584 207.884 198.714C208.136 198.845 208.336 199.019 208.484 199.245V196.915H209.197ZM207.788 202.218C208.014 202.079 208.188 201.887 208.31 201.644C208.432 201.401 208.492 201.114 208.492 200.801C208.492 200.488 208.432 200.201 208.31 199.949C208.188 199.697 208.014 199.497 207.788 199.358C207.562 199.219 207.31 199.149 207.032 199.149C206.589 199.149 206.232 199.306 205.963 199.61C205.693 199.914 205.563 200.305 205.563 200.783C205.563 201.27 205.693 201.661 205.963 201.966C206.232 202.27 206.589 202.418 207.032 202.418C207.31 202.418 207.562 202.357 207.788 202.218Z" fill="white"/>
<circle cx="154.583" cy="199.89" r="2.71654" fill="#FBE30D"/>
<path opacity="0.9" d="M284.801 223.349C285.044 223.601 285.175 223.922 285.175 224.314C285.175 224.661 285.079 224.966 284.897 225.226C284.714 225.487 284.453 225.696 284.123 225.835C283.784 225.983 283.393 226.052 282.958 226.052C282.28 226.052 281.75 225.887 281.35 225.539C280.95 225.192 280.75 224.722 280.75 224.122H281.498C281.498 224.522 281.637 224.835 281.915 225.061C282.193 225.287 282.549 225.4 283.001 225.4C283.41 225.4 283.749 225.296 284.019 225.087C284.288 224.879 284.427 224.609 284.427 224.261C284.427 223.94 284.297 223.688 284.036 223.496C283.775 223.314 283.401 223.218 282.932 223.218H282.41V222.584H282.888C283.332 222.584 283.671 222.488 283.914 222.288C284.149 222.097 284.271 221.836 284.271 221.514C284.271 221.21 284.149 220.967 283.906 220.784C283.662 220.61 283.358 220.515 282.984 220.515C282.584 220.515 282.263 220.619 282.019 220.819C281.776 221.019 281.645 221.288 281.645 221.627H280.915C280.915 221.08 281.106 220.645 281.48 220.332C281.845 220.019 282.341 219.863 282.958 219.863C283.375 219.863 283.74 219.932 284.053 220.063C284.366 220.202 284.601 220.384 284.766 220.628C284.931 220.871 285.018 221.158 285.018 221.471C285.018 221.845 284.914 222.149 284.714 222.392C284.505 222.636 284.236 222.792 283.888 222.862C284.245 222.931 284.549 223.097 284.801 223.349ZM285.532 219.915H289.826V220.428L286.836 226H286.044L289.026 220.584H285.532V219.915ZM292.74 223.331C293.079 223.036 293.34 222.775 293.514 222.532C293.688 222.288 293.775 222.019 293.775 221.714C293.775 221.341 293.653 221.045 293.41 220.828C293.166 220.619 292.844 220.506 292.445 220.506C292.045 220.506 291.732 220.628 291.497 220.871C291.254 221.115 291.141 221.445 291.141 221.862V221.975H290.41V221.819C290.41 221.436 290.489 221.097 290.663 220.802C290.828 220.506 291.062 220.28 291.375 220.106C291.688 219.941 292.045 219.854 292.445 219.854C293.088 219.854 293.601 220.019 293.966 220.35C294.331 220.68 294.522 221.123 294.522 221.68C294.522 221.975 294.461 222.236 294.348 222.471C294.235 222.714 294.088 222.931 293.914 223.123C293.731 223.314 293.496 223.54 293.21 223.783L291.384 225.331H294.566V226H290.376V225.383L292.74 223.331ZM297.949 221.341C298.183 220.871 298.522 220.515 298.966 220.254C299.4 219.993 299.913 219.863 300.496 219.863C301.165 219.863 301.73 220.045 302.182 220.41C302.634 220.776 302.921 221.271 303.043 221.897H302.295C302.173 221.48 301.956 221.149 301.643 220.915C301.321 220.68 300.93 220.558 300.478 220.558C300.061 220.558 299.687 220.663 299.365 220.862C299.044 221.071 298.8 221.349 298.627 221.714C298.453 222.079 298.366 222.497 298.366 222.957C298.366 223.427 298.453 223.835 298.627 224.201C298.8 224.566 299.044 224.853 299.365 225.052C299.678 225.261 300.044 225.357 300.461 225.357C300.826 225.357 301.156 225.287 301.452 225.148C301.747 225.009 301.973 224.8 302.139 224.54C302.304 224.279 302.391 223.966 302.391 223.609V223.401H300.565V222.705H303.129V226H302.504L302.425 225.035C302.252 225.313 301.999 225.548 301.669 225.748C301.33 225.957 300.921 226.052 300.452 226.052C299.896 226.052 299.4 225.922 298.966 225.661C298.531 225.4 298.192 225.044 297.949 224.574C297.705 224.105 297.592 223.566 297.592 222.957C297.592 222.349 297.705 221.81 297.949 221.341ZM304.895 219.985C304.982 220.071 305.025 220.184 305.025 220.315C305.025 220.454 304.982 220.558 304.895 220.645C304.808 220.732 304.695 220.776 304.564 220.776C304.425 220.776 304.321 220.732 304.234 220.645C304.147 220.558 304.104 220.454 304.104 220.315C304.104 220.184 304.147 220.071 304.234 219.985C304.321 219.898 304.425 219.854 304.564 219.854C304.695 219.854 304.808 219.898 304.895 219.985ZM304.208 221.567H304.921V226H304.208V221.567ZM308.158 219.915C308.801 219.915 309.296 220.054 309.644 220.332C309.992 220.61 310.174 221.002 310.174 221.488C310.174 221.853 310.079 222.149 309.896 222.384C309.705 222.618 309.435 222.784 309.088 222.871C309.974 223.044 310.426 223.523 310.426 224.322C310.426 224.844 310.235 225.261 309.853 225.557C309.47 225.852 308.931 226 308.218 226H306.002V219.915H308.158ZM306.758 222.558H308.192C308.575 222.558 308.879 222.471 309.096 222.297C309.305 222.123 309.418 221.888 309.418 221.575C309.418 221.271 309.305 221.036 309.096 220.862C308.888 220.689 308.583 220.602 308.192 220.602H306.758V222.558ZM306.758 225.313H308.218C308.679 225.313 309.036 225.226 309.279 225.044C309.522 224.87 309.653 224.618 309.653 224.296C309.653 223.957 309.522 223.696 309.279 223.514C309.027 223.331 308.67 223.236 308.218 223.236H306.758V225.313Z" fill="white"/>
<path opacity="0.9" d="M171.913 219.915C172.313 219.915 172.661 219.993 172.974 220.15C173.278 220.306 173.513 220.523 173.686 220.802C173.852 221.08 173.938 221.41 173.938 221.784C173.938 222.21 173.817 222.575 173.582 222.888C173.347 223.201 173.034 223.41 172.643 223.514L174.008 226H173.156L171.896 223.662H170.34V226H169.583V219.915H171.913ZM170.34 222.966H171.852C172.252 222.966 172.565 222.862 172.808 222.645C173.043 222.436 173.165 222.149 173.165 221.784C173.165 221.436 173.043 221.149 172.808 220.932C172.565 220.723 172.252 220.61 171.861 220.61H170.34V222.966ZM174.283 226L176.604 219.915H177.5L179.812 226H179.003L178.36 224.357H175.709L175.066 226H174.283ZM175.935 223.67H178.134L177.03 220.741L175.935 223.67ZM180.5 219.915H181.457L183.612 224.966L185.742 219.915H186.681V226H185.942V221.202L183.925 226H183.256L181.239 221.202V226H180.5V219.915ZM190.266 221.341C190.501 220.871 190.84 220.515 191.283 220.254C191.718 219.993 192.231 219.863 192.813 219.863C193.482 219.863 194.047 220.045 194.499 220.41C194.951 220.776 195.238 221.28 195.36 221.906H194.604C194.491 221.488 194.273 221.158 193.952 220.915C193.63 220.68 193.239 220.558 192.778 220.558C192.361 220.558 191.987 220.663 191.674 220.862C191.353 221.071 191.109 221.349 190.935 221.714C190.761 222.079 190.683 222.488 190.683 222.957C190.683 223.427 190.761 223.835 190.935 224.201C191.109 224.566 191.353 224.853 191.674 225.052C191.987 225.261 192.361 225.357 192.778 225.357C193.248 225.357 193.639 225.244 193.952 225.009C194.265 224.774 194.473 224.444 194.595 224.009H195.351C195.23 224.644 194.951 225.139 194.499 225.505C194.047 225.87 193.491 226.052 192.813 226.052C192.231 226.052 191.718 225.93 191.283 225.67C190.84 225.409 190.501 225.052 190.266 224.583C190.023 224.114 189.91 223.575 189.91 222.957C189.91 222.349 190.023 221.81 190.266 221.341ZM200.349 225.348V226H199.958C199.671 226 199.471 225.948 199.35 225.826C199.228 225.713 199.158 225.539 199.158 225.313C198.811 225.809 198.315 226.052 197.672 226.052C197.177 226.052 196.777 225.939 196.481 225.704C196.186 225.478 196.038 225.157 196.038 224.757C196.038 224.314 196.186 223.975 196.49 223.731C196.794 223.496 197.237 223.375 197.82 223.375H199.124V223.07C199.124 222.784 199.019 222.558 198.828 222.392C198.637 222.236 198.367 222.149 198.02 222.149C197.707 222.149 197.455 222.219 197.255 222.358C197.055 222.497 196.933 222.671 196.89 222.897H196.177C196.229 222.462 196.42 222.123 196.751 221.88C197.081 221.636 197.516 221.514 198.054 221.514C198.62 221.514 199.054 221.654 199.367 221.932C199.68 222.21 199.837 222.601 199.837 223.114V225.026C199.837 225.244 199.932 225.348 200.132 225.348H200.349ZM199.124 223.975H197.75C197.09 223.975 196.759 224.227 196.759 224.713C196.759 224.939 196.846 225.113 197.02 225.244C197.194 225.383 197.429 225.444 197.724 225.444C198.159 225.444 198.498 225.331 198.75 225.105C198.993 224.879 199.124 224.574 199.124 224.192V223.975ZM204.201 225.635C203.853 225.913 203.418 226.052 202.897 226.052C202.462 226.052 202.088 225.957 201.767 225.765C201.436 225.574 201.184 225.313 201.01 224.966C200.828 224.618 200.741 224.227 200.741 223.775C200.741 223.331 200.828 222.94 201.01 222.592C201.193 222.253 201.454 221.993 201.784 221.801C202.114 221.61 202.488 221.514 202.923 221.514C203.444 221.514 203.87 221.654 204.209 221.932C204.548 222.21 204.766 222.592 204.853 223.079H204.131C204.062 222.801 203.914 222.575 203.697 222.401C203.471 222.236 203.21 222.149 202.897 222.149C202.471 222.149 202.123 222.306 201.862 222.601C201.602 222.905 201.471 223.297 201.471 223.775C201.471 224.261 201.602 224.661 201.862 224.966C202.123 225.27 202.471 225.418 202.897 225.418C203.218 225.418 203.488 225.339 203.714 225.165C203.931 225 204.07 224.766 204.14 224.47H204.853C204.757 224.966 204.54 225.357 204.201 225.635ZM209.154 222.001C209.484 222.332 209.649 222.836 209.649 223.531V226H208.937V223.575C208.937 223.123 208.832 222.775 208.624 222.532C208.415 222.288 208.111 222.166 207.728 222.166C207.311 222.166 206.989 222.314 206.746 222.601C206.503 222.897 206.39 223.288 206.39 223.783V226H205.677V219.915H206.39V222.297C206.529 222.071 206.72 221.88 206.963 221.732C207.207 221.593 207.502 221.514 207.85 221.514C208.389 221.514 208.824 221.68 209.154 222.001ZM210.662 222.592C210.836 222.253 211.088 221.993 211.41 221.801C211.723 221.61 212.088 221.514 212.505 221.514C212.905 221.514 213.27 221.601 213.583 221.767C213.896 221.94 214.14 222.184 214.322 222.497C214.496 222.818 214.592 223.192 214.609 223.618C214.609 223.688 214.6 223.783 214.592 223.922H211.149V223.983C211.158 224.418 211.288 224.766 211.549 225.026C211.801 225.287 212.132 225.418 212.549 225.418C212.862 225.418 213.131 225.339 213.357 225.183C213.583 225.026 213.731 224.8 213.809 224.514H214.531C214.444 224.966 214.227 225.339 213.879 225.626C213.531 225.913 213.105 226.052 212.601 226.052C212.158 226.052 211.775 225.965 211.445 225.774C211.114 225.583 210.854 225.322 210.671 224.974C210.489 224.627 210.402 224.235 210.402 223.783C210.402 223.331 210.489 222.94 210.662 222.592ZM213.87 223.331C213.835 222.957 213.688 222.662 213.444 222.453C213.201 222.245 212.888 222.14 212.514 222.14C212.175 222.14 211.879 222.253 211.627 222.471C211.367 222.697 211.227 222.984 211.193 223.331H213.87ZM219.158 221.688H219.81V223.21H221.262V223.809H219.81V225.339H219.158V223.809H217.715V223.21H219.158V221.688ZM226.791 219.915C227.435 219.915 227.93 220.054 228.278 220.332C228.626 220.61 228.808 221.002 228.808 221.488C228.808 221.853 228.713 222.149 228.53 222.384C228.339 222.618 228.069 222.784 227.722 222.871C228.608 223.044 229.06 223.523 229.06 224.322C229.06 224.844 228.869 225.261 228.487 225.557C228.104 225.852 227.565 226 226.852 226H224.636V219.915H226.791ZM225.392 222.558H226.826C227.209 222.558 227.513 222.471 227.73 222.297C227.939 222.123 228.052 221.888 228.052 221.575C228.052 221.271 227.939 221.036 227.73 220.862C227.522 220.689 227.217 220.602 226.826 220.602H225.392V222.558ZM225.392 225.313H226.852C227.313 225.313 227.669 225.226 227.913 225.044C228.156 224.87 228.287 224.618 228.287 224.296C228.287 223.957 228.156 223.696 227.913 223.514C227.661 223.331 227.304 223.236 226.852 223.236H225.392V225.313ZM233.764 221.567V226H233.146L233.051 225.409C232.712 225.844 232.242 226.052 231.634 226.052C231.104 226.052 230.678 225.896 230.365 225.565C230.043 225.244 229.887 224.731 229.887 224.035V221.567H230.599V223.992C230.599 224.453 230.695 224.8 230.895 225.044C231.095 225.287 231.382 225.4 231.755 225.4C232.155 225.4 232.477 225.261 232.703 224.966C232.929 224.679 233.051 224.287 233.051 223.783V221.567H233.764ZM235.048 221.567V221.071C235.048 220.68 235.135 220.393 235.317 220.202C235.5 220.011 235.795 219.915 236.204 219.915H237.021V220.567H236.247C236.074 220.567 235.943 220.61 235.874 220.68C235.795 220.758 235.761 220.88 235.761 221.054V221.567H237.012V222.219H235.761V226H235.048V222.219H234.248V221.567H235.048ZM237.764 220.202C237.946 220.011 238.242 219.915 238.65 219.915H239.468V220.567H238.694C238.52 220.567 238.39 220.61 238.32 220.68C238.242 220.758 238.207 220.88 238.207 221.054V221.567H239.459V222.219H238.207V226H237.494V221.071C237.494 220.68 237.581 220.393 237.764 220.202ZM239.84 222.592C240.014 222.253 240.266 221.993 240.587 221.801C240.9 221.61 241.265 221.514 241.683 221.514C242.082 221.514 242.448 221.601 242.761 221.767C243.073 221.94 243.317 222.184 243.499 222.497C243.673 222.818 243.769 223.192 243.786 223.618C243.786 223.688 243.778 223.783 243.769 223.922H240.327V223.983C240.335 224.418 240.466 224.766 240.726 225.026C240.978 225.287 241.309 225.418 241.726 225.418C242.039 225.418 242.308 225.339 242.535 225.183C242.761 225.026 242.908 224.8 242.987 224.514H243.708C243.621 224.966 243.404 225.339 243.056 225.626C242.708 225.913 242.282 226.052 241.778 226.052C241.335 226.052 240.952 225.965 240.622 225.774C240.292 225.583 240.031 225.322 239.848 224.974C239.666 224.627 239.579 224.235 239.579 223.783C239.579 223.331 239.666 222.94 239.84 222.592ZM243.047 223.331C243.013 222.957 242.865 222.662 242.621 222.453C242.378 222.245 242.065 222.14 241.691 222.14C241.352 222.14 241.057 222.253 240.805 222.471C240.544 222.697 240.405 222.984 240.37 223.331H243.047ZM246.851 221.567V222.262H246.495C246.069 222.262 245.765 222.41 245.582 222.688C245.399 222.975 245.312 223.323 245.312 223.74V226H244.6V221.567H245.217L245.312 222.236C245.434 222.036 245.599 221.871 245.808 221.749C246.008 221.627 246.286 221.567 246.651 221.567H246.851Z" fill="white"/>
<circle cx="154.583" cy="223.976" r="2.71654" fill="#146EF5"/>
<rect opacity="0.6" x="168.992" y="241" width="78.2362" height="4.34646" rx="2.17323" fill="url(#paint15_linear_890_1767)"/>
<rect opacity="0.6" x="292.866" y="241" width="18.4724" height="4.34646" rx="2.17323" fill="url(#paint16_linear_890_1767)"/>
<circle cx="154.583" cy="243.717" r="2.71654" fill="#99FF33"/>
<rect opacity="0.6" x="168.992" y="259.645" width="80.1432" height="3.81634" rx="1.90817" fill="url(#paint17_linear_890_1767)"/>
<rect opacity="0.6" x="292.866" y="259.433" width="18.4724" height="4.34646" rx="2.17323" fill="url(#paint18_linear_890_1767)"/>
<circle cx="154.583" cy="262.15" r="2.71654" fill="#EC2547"/>
<defs>
<filter id="filter0_i_890_1767" x="141" y="133" width="187" height="144" filterUnits="userSpaceOnUse" color-interpolation-filters="sRGB">
<feFlood flood-opacity="0" result="BackgroundImageFix"/>
<feBlend mode="normal" in="SourceGraphic" in2="BackgroundImageFix" result="shape"/>
<feColorMatrix in="SourceAlpha" type="matrix" values="0 0 0 0 0 0 0 0 0 0 0 0 0 0 0 0 0 0 127 0" result="hardAlpha"/>
<feOffset/>
<feGaussianBlur stdDeviation="10.8661"/>
<feComposite in2="hardAlpha" operator="arithmetic" k2="-1" k3="1"/>
<feColorMatrix type="matrix" values="0 0 0 0 0.7764 0 0 0 0 0.801812 0 0 0 0 1 0 0 0 0.1 0"/>
<feBlend mode="normal" in2="shape" result="effect1_innerShadow_890_1767"/>
</filter>
<linearGradient id="paint0_linear_890_1767" x1="154.96" y1="107.264" x2="10.2734" y2="97.4492" gradientUnits="userSpaceOnUse">
<stop stop-color="#F6F6F6"/>
<stop offset="1" stop-color="#323234"/>
</linearGradient>
<radialGradient id="paint1_radial_890_1767" cx="0" cy="0" r="1" gradientUnits="userSpaceOnUse" gradientTransform="translate(277.365 99.1936) rotate(110.734) scale(74.7736 74.3851)">
<stop stop-color="#24FF95"/>
<stop offset="1" stop-color="#E7FF57" stop-opacity="0"/>
</radialGradient>
<radialGradient id="paint2_radial_890_1767" cx="0" cy="0" r="1" gradientUnits="userSpaceOnUse" gradientTransform="translate(312.91 81.5918) rotate(118.473) scale(91.9775 114.042)">
<stop stop-color="white"/>
<stop offset="1" stop-color="white" stop-opacity="0"/>
</radialGradient>
<linearGradient id="paint3_linear_890_1767" x1="69" y1="222" x2="383" y2="222" gradientUnits="userSpaceOnUse">
<stop stop-color="#FBE30D"/>
<stop offset="1" stop-color="#1B1C1E"/>
</linearGradient>
<linearGradient id="paint4_linear_890_1767" x1="69" y1="183" x2="383" y2="183" gradientUnits="userSpaceOnUse">
<stop stop-color="#31E1E2"/>
<stop offset="1" stop-color="#1B1C1D"/>
</linearGradient>
<linearGradient id="paint5_linear_890_1767" x1="76.5" y1="118" x2="383" y2="118" gradientUnits="userSpaceOnUse">
<stop stop-color="#99FF33"/>
<stop offset="0.341959" stop-color="#99FF33"/>
<stop offset="1" stop-color="#1C1C1C"/>
</linearGradient>
<linearGradient id="paint6_linear_890_1767" x1="69" y1="70.5" x2="384" y2="70.5" gradientUnits="userSpaceOnUse">
<stop stop-color="#EC2547"/>
<stop offset="1" stop-color="#222222"/>
</linearGradient>
<linearGradient id="paint7_linear_890_1767" x1="69" y1="168.5" x2="383" y2="168.5" gradientUnits="userSpaceOnUse">
<stop stop-color="#146EF5"/>
<stop offset="1" stop-color="#1B1C1C"/>
</linearGradient>
<linearGradient id="paint8_linear_890_1767" x1="69" y1="198.5" x2="383" y2="198.5" gradientUnits="userSpaceOnUse">
<stop stop-color="white"/>
<stop offset="1" stop-color="#1B1D1D"/>
</linearGradient>
<linearGradient id="paint9_linear_890_1767" x1="95.3244" y1="49.2598" x2="26.8677" y2="49.2598" gradientUnits="userSpaceOnUse">
<stop stop-color="#18191B"/>
<stop offset="1" stop-color="#999999"/>
</linearGradient>
<linearGradient id="paint10_linear_890_1767" x1="377.9" y1="30" x2="323.65" y2="30" gradientUnits="userSpaceOnUse">
<stop stop-color="#18191B"/>
<stop offset="1" stop-color="#999999"/>
</linearGradient>
<linearGradient id="paint11_linear_890_1767" x1="379" y1="39" x2="344" y2="39" gradientUnits="userSpaceOnUse">
<stop stop-color="#18191B"/>
<stop offset="1" stop-color="#999999"/>
</linearGradient>
<linearGradient id="paint12_linear_890_1767" x1="106.015" y1="56.7647" x2="260.928" y2="304.157" gradientUnits="userSpaceOnUse">
<stop stop-color="#1F2023"/>
<stop offset="1" stop-color="#0E0E0E"/>
</linearGradient>
<linearGradient id="paint13_linear_890_1767" x1="280.94" y1="239.879" x2="167.878" y2="116.16" gradientUnits="userSpaceOnUse">
<stop offset="0.369862" stop-color="#0E0F0F"/>
<stop offset="1" stop-color="#414141"/>
</linearGradient>
<radialGradient id="paint14_radial_890_1767" cx="0" cy="0" r="1" gradientUnits="userSpaceOnUse" gradientTransform="translate(285.891 211.574) rotate(-55.9819) scale(80.6975 95.1563)">
<stop stop-color="#5C80FF" stop-opacity="0.8"/>
<stop offset="1" stop-color="#57D7FF" stop-opacity="0"/>
</radialGradient>
<linearGradient id="paint15_linear_890_1767" x1="243.317" y1="244.26" x2="174.86" y2="244.26" gradientUnits="userSpaceOnUse">
<stop stop-color="#18191B"/>
<stop offset="1" stop-color="#999999"/>
</linearGradient>
<linearGradient id="paint16_linear_890_1767" x1="310.415" y1="244.26" x2="294.252" y2="244.26" gradientUnits="userSpaceOnUse">
<stop stop-color="#18191B"/>
<stop offset="1" stop-color="#999999"/>
</linearGradient>
<linearGradient id="paint17_linear_890_1767" x1="245.128" y1="262.507" x2="175.003" y2="262.507" gradientUnits="userSpaceOnUse">
<stop stop-color="#18191B"/>
<stop offset="1" stop-color="#999999"/>
</linearGradient>
<linearGradient id="paint18_linear_890_1767" x1="310.415" y1="262.693" x2="294.252" y2="262.693" gradientUnits="userSpaceOnUse">
<stop stop-color="#18191B"/>
<stop offset="1" stop-color="#999999"/>
</linearGradient>
</defs>
</svg>
