<svg width="67" height="68" viewBox="0 0 67 68" fill="none" xmlns="http://www.w3.org/2000/svg">
<rect width="67" height="68" rx="5" fill="url(#paint0_linear_1049_1354)"/>
<rect x="0.460614" y="0.460614" width="66.0788" height="67.0788" rx="4.53939" stroke="url(#paint1_radial_1049_1354)" stroke-opacity="0.1" stroke-width="0.921228"/>
<rect x="0.460614" y="0.460614" width="66.0788" height="67.0788" rx="4.53939" stroke="url(#paint2_radial_1049_1354)" stroke-opacity="0.3" stroke-width="0.921228"/>
<path fill-rule="evenodd" clip-rule="evenodd" d="M22.2733 42.4122H17V52H22.2733V42.4122ZM27.4325 16C32.0666 16 34.0298 16.2511 36.8605 17.7578C39.9195 19.4242 41.8142 22.6887 41.8142 26.7749C41.8142 30.5415 40.2847 33.806 37.3171 35.7692C34.6005 37.5726 31.5187 37.8237 27.3868 37.8237H17V16H27.4325ZM22.2733 33.2581H28.5967C33.0254 33.2581 36.3811 31.4775 36.3811 26.8205C36.3811 22.4832 33.6646 20.5656 28.2315 20.6341L22.2733 20.6798V33.2581ZM50.6472 40.818C50.6472 42.5753 49.1865 43.9998 47.3848 43.9998C45.5829 43.9998 44.1222 42.5753 44.1222 40.818C44.1222 39.0607 45.5829 37.6363 47.3848 37.6363C49.1865 37.6363 50.6472 39.0607 50.6472 40.818Z" fill="white"/>
<defs>
<linearGradient id="paint0_linear_1049_1354" x1="33.5" y1="20.4" x2="33.5" y2="68" gradientUnits="userSpaceOnUse">
<stop stop-color="#1F1F21"/>
<stop offset="1" stop-color="#202022"/>
</linearGradient>
<radialGradient id="paint1_radial_1049_1354" cx="0" cy="0" r="1" gradientUnits="userSpaceOnUse" gradientTransform="translate(30.7015 0.557378) rotate(94.0059) scale(38.5532 27.5665)">
<stop stop-color="white" stop-opacity="0.48"/>
<stop offset="1" stop-color="white" stop-opacity="0.04"/>
</radialGradient>
<radialGradient id="paint2_radial_1049_1354" cx="0" cy="0" r="1" gradientUnits="userSpaceOnUse" gradientTransform="translate(-4.39344 28.4262) rotate(10.4552) scale(36.8578 28.8028)">
<stop stop-color="#05FEFF"/>
<stop offset="1" stop-color="#05FEFF" stop-opacity="0"/>
</radialGradient>
</defs>
</svg>
