<svg width="50" height="50" viewBox="0 0 50 50" fill="none" xmlns="http://www.w3.org/2000/svg">
<path opacity="0.7" d="M27.6607 38.1002C27.3105 37.7532 27.3105 37.1894 27.6607 36.8423C28.0094 36.4938 28.5759 36.4938 28.9262 36.8423L31.1373 39.0429L35.1987 35.0009L31.9795 31.7971C31.6871 31.5061 31.6399 31.0666 31.8348 30.7256C32.0404 30.3468 32.2201 29.9739 32.3739 29.6057C32.5338 29.2207 32.6769 28.8206 32.7987 28.4114C32.9129 28.0235 33.2693 27.7734 33.6545 27.7734V27.7704H38.2094V22.0539H33.6545C33.2281 22.0539 32.8703 21.7554 32.7804 21.3552C32.6616 20.9673 32.5261 20.5884 32.3738 20.2216H32.3723C32.2124 19.8382 32.0297 19.4578 31.8241 19.0804C31.6292 18.7212 31.7053 18.2878 31.987 18.0165L35.1972 14.8218L31.1358 10.7798L27.9166 13.9836C27.6242 14.2746 27.1826 14.3216 26.8399 14.1276C26.4592 13.923 26.0846 13.7442 25.7146 13.5926C25.3278 13.4335 24.9258 13.291 24.5146 13.1698C24.1248 13.0562 23.8735 12.7015 23.8735 12.3181H23.8705V7.78497H18.1265V12.3181C18.1265 12.744 17.8265 13.1001 17.4245 13.188C17.0331 13.3062 16.6524 13.4411 16.2824 13.5927C15.9078 13.7473 15.5255 13.9291 15.1387 14.1383C14.7778 14.3322 14.3423 14.2565 14.0697 13.9761L10.8596 10.7813L6.79823 14.8233L10.0175 18.0271C10.3098 18.3181 10.3571 18.7576 10.1621 19.0986C9.95655 19.4775 9.77686 19.8503 9.62458 20.2186C9.46468 20.6035 9.32154 21.0036 9.19817 21.4128C9.08396 21.8008 8.72763 22.0508 8.34235 22.0508V22.0539H3.78744V27.7703H8.34235C8.76876 27.7703 9.12659 28.0689 9.21645 28.469C9.33523 28.8585 9.47076 29.2389 9.62306 29.6056C9.77839 29.9785 9.96112 30.3589 10.1713 30.7423C10.3662 31.1015 10.29 31.5349 10.0083 31.8062L6.7982 35.001L10.8596 39.0429L13.0707 36.8423C13.421 36.4938 13.9859 36.4938 14.3362 36.8423C14.6864 37.1894 14.6864 37.7532 14.3362 38.1002L11.4931 40.9297C11.1428 41.2783 10.5778 41.2783 10.2276 40.9297L4.9008 35.6284C4.55207 35.2799 4.55207 34.7176 4.9008 34.369L8.29515 30.9909C8.18551 30.7605 8.07891 30.5226 7.97536 30.2756C7.87637 30.0361 7.78196 29.7921 7.69516 29.5481H2.89543C2.40204 29.5481 2 29.1495 2 28.6569V21.1597C2 20.6671 2.40048 20.2685 2.89543 20.2685H7.69516C7.78196 20.023 7.87485 19.7805 7.97536 19.5396C8.07739 19.2941 8.18399 19.0561 8.29515 18.8258L4.9008 15.4477C4.55207 15.0991 4.55207 14.5368 4.9008 14.1882L10.2276 8.88692C10.5778 8.53986 11.1428 8.53986 11.4931 8.88692L14.8874 12.265C15.1189 12.1559 15.358 12.0498 15.6062 11.9468C15.8468 11.8483 16.092 11.7543 16.3372 11.6679V6.89114C16.3372 6.40012 16.7376 6 17.2326 6H24.7659C25.2608 6 25.6613 6.39857 25.6613 6.89114V11.6695C25.9065 11.7559 26.1517 11.8483 26.3923 11.9483C26.639 12.0499 26.8781 12.156 27.1111 12.2666L30.5054 8.88847C30.8557 8.54142 31.4206 8.54142 31.7709 8.88847L37.0977 14.1898C37.4464 14.5384 37.4464 15.1006 37.0977 15.4492L33.7048 18.8258C33.816 19.0577 33.9226 19.2956 34.0246 19.5366L34.0231 19.5381L34.0246 19.5411C34.1236 19.7806 34.218 20.0246 34.3048 20.2686H39.1046C39.598 20.2686 40 20.6672 40 21.1597V28.657C40 29.1495 39.5995 29.5481 39.1046 29.5481H34.3048C34.218 29.7937 34.1251 30.0361 34.0246 30.2771C33.9226 30.5226 33.816 30.7606 33.7048 30.9909L37.0992 34.369C37.4479 34.7176 37.4479 35.2799 37.0992 35.6284L31.7724 40.9298C31.4222 41.2783 30.8572 41.2783 30.5069 40.9298L27.6638 38.1002L27.6607 38.1002Z" fill="white"/>
<path opacity="0.7" d="M23.2669 29.6661C24.2348 29.2266 25.055 28.5111 25.6322 27.6182C26.1982 26.7417 26.5287 25.6918 26.5287 24.5633C26.5287 23.426 26.1969 22.3722 25.626 21.4946C25.2516 20.9183 24.7732 20.4155 24.2173 20.014V23.8616C24.2173 24.139 24.0671 24.3796 23.8454 24.5088L21.4201 26.2249C21.1571 26.4111 20.814 26.3985 20.5686 26.2161L18.1007 24.4696C17.8966 24.3252 17.7877 24.096 17.7877 23.8629H17.7839V20.0153C17.228 20.4168 16.7496 20.9196 16.3753 21.4958C15.8056 22.3735 15.4725 23.4273 15.4725 24.5646C15.4725 25.6931 15.8018 26.743 16.369 27.6194C16.955 28.5275 17.7939 29.252 18.7831 29.6889C19.0586 29.8105 19.2239 30.0841 19.2239 30.3691H19.2264V40.5133H22.7761V30.3691C22.7761 30.0448 22.9815 29.7687 23.2669 29.6661ZM26.8618 28.4313C26.2095 29.4394 25.3092 30.269 24.2474 30.8326V41.2553C24.2474 41.6656 23.9181 42 23.5112 42H18.4889C18.0832 42 17.7526 41.6669 17.7526 41.2553V30.8326C16.6896 30.269 15.7893 29.4381 15.1382 28.4313C14.4195 27.318 14 25.9894 14 24.5632C14 23.1333 14.4232 21.7984 15.1507 20.6799C15.8919 19.5388 16.9488 18.6282 18.1934 18.0773C18.291 18.0291 18.4025 18 18.5189 18C18.9246 18 19.2552 18.3331 19.2552 18.7447V23.4778L21.0006 24.7127L22.7461 23.4778V18.7447C22.7461 18.6459 22.7649 18.5459 22.8062 18.4509C22.9665 18.0735 23.3985 17.9 23.7716 18.0621C25.0312 18.613 26.1018 19.53 26.8493 20.6812C27.5768 21.7983 28 23.1332 28 24.5645C28 25.9919 27.5818 27.3204 26.8618 28.4325L26.8618 28.4313Z" fill="white"/>
</svg>
