<svg width="50" height="50" viewBox="0 0 50 50" fill="none" xmlns="http://www.w3.org/2000/svg">
<g opacity="0.7">
<mask id="path-1-inside-1_391_481" fill="white">
<path fill-rule="evenodd" clip-rule="evenodd" d="M18.8447 7.19645C21.4171 6.95121 24.0166 6.93632 26.5928 7.14763C28.8383 7.33255 31.1113 7.6569 33.2607 8.3361C34.2375 8.64557 35.2343 9.02743 36.0957 9.5822C37.0315 10.1898 37.876 11.0452 37.9795 12.1789C37.9926 12.2446 38 12.3118 38 12.3791V19.6261C38 19.7609 37.9982 19.8932 37.9951 20.0246C37.9986 20.0584 38 20.093 38 20.1271V27.3742C38 27.5334 37.9986 27.6889 37.9932 27.8439C37.9935 27.8554 37.9961 27.8676 37.9961 27.8791V28.2248C37.2874 27.8747 36.5104 27.6427 35.6904 27.5529C35.6886 27.3847 35.6856 27.2163 35.6855 27.0529V23.1632C35.1189 23.4782 34.509 23.7259 33.9043 23.9465C31.678 24.7586 29.2736 25.1207 26.9141 25.3263C26.8403 25.3329 26.7662 25.3407 26.6924 25.3468C26.6481 25.3505 26.6038 25.355 26.5596 25.3586C26.5025 25.3632 26.4448 25.3649 26.3877 25.3693C26.2189 25.3822 26.0498 25.3946 25.8809 25.4054C23.9274 25.5343 21.9611 25.5333 20.0078 25.3986C18.3676 25.2944 16.7251 25.0986 15.1191 24.7687C14.67 24.6779 14.223 24.5759 13.7803 24.4601C13.7755 24.4589 13.7704 24.4584 13.7656 24.4572C12.8993 24.2341 12.038 23.9558 11.2168 23.5998C11.2075 23.5959 11.1977 23.592 11.1885 23.5881C10.9001 23.466 10.6015 23.3236 10.3076 23.1623V27.2336C10.3076 27.4185 10.2986 27.6097 10.3027 27.798C10.3049 27.8236 10.3073 27.8494 10.3076 27.8752H10.3115V27.9181C10.3185 27.944 10.3277 27.9699 10.3359 27.9953C10.361 28.0417 10.3875 28.0875 10.415 28.132C10.4274 28.1528 10.4425 28.1726 10.457 28.1925C10.5329 28.2777 10.616 28.3558 10.6992 28.4338C10.7452 28.4751 10.7959 28.5164 10.8457 28.5578C11.325 28.885 11.8367 29.1496 12.3711 29.3781C14.0468 30.0381 15.8485 30.3983 17.6328 30.6447C18.3712 30.7372 19.1095 30.8101 19.8516 30.8644C21.4588 30.9789 23.0761 31.0041 24.6885 30.9425C23.9985 31.6104 23.4131 32.3856 22.9609 33.2424C22.2875 33.2419 21.6138 33.2282 20.9414 33.1965C20.9248 33.1957 20.9082 33.1952 20.8916 33.1945C20.6859 33.1846 20.4799 33.1742 20.2744 33.1613C18.0815 33.0351 15.882 32.7513 13.7656 32.2043C12.6813 31.925 11.6043 31.5628 10.6045 31.0646C10.5057 31.0157 10.408 30.9642 10.3115 30.9113V34.9972C10.3115 35.2084 10.2977 35.4246 10.3086 35.6359C10.318 35.6753 10.3293 35.7144 10.3418 35.7531C10.3658 35.797 10.3915 35.8408 10.4189 35.884C10.4269 35.8963 10.4358 35.9087 10.4443 35.9211L10.4453 35.922C10.5222 36.0088 10.6039 36.088 10.6885 36.1672C10.7383 36.2086 10.788 36.2547 10.8379 36.2961C10.842 36.3 10.8473 36.3031 10.8516 36.3068C11.3269 36.6352 11.8409 36.8976 12.374 37.1252C14.0466 37.784 15.8429 38.1437 17.624 38.3898C18.3594 38.4839 19.0983 38.5589 19.8369 38.6125C20.5549 38.6633 21.2751 38.6974 21.9961 38.714C22.1034 39.5117 22.3124 40.277 22.6123 40.9953C22.3779 40.9931 22.1433 40.9921 21.9092 40.9865C19.2252 40.9223 16.5104 40.651 13.9072 39.9982C12.8728 39.734 11.8528 39.3977 10.8838 38.9523C10.1687 38.624 9.45315 38.2009 8.90723 37.6349C8.37298 37.0802 8.01154 36.4006 8 35.6271V27.8791C8.00003 27.8659 8.0015 27.852 8.00195 27.839C8.00179 27.8275 8.00098 27.8154 8.00098 27.8039V20.1271C8.001 20.1168 8.00167 20.1061 8.00195 20.0959C8.00177 20.0828 8.00098 20.0689 8.00098 20.0558V12.3761C8.001 12.2938 8.01048 12.2132 8.02734 12.1369C8.21743 10.1481 10.599 9.06092 12.3496 8.4611C14.4337 7.74795 16.653 7.40778 18.8447 7.19645ZM10.3076 19.4826C10.3076 19.6604 10.2998 19.8434 10.3027 20.0246C10.3063 20.0584 10.3074 20.093 10.3076 20.1271C10.3076 20.1372 10.3093 20.1481 10.3096 20.1584C10.3171 20.187 10.3278 20.2153 10.3369 20.2433C10.3619 20.2896 10.3876 20.3357 10.415 20.38C10.427 20.4002 10.442 20.4193 10.4561 20.4386C10.5323 20.5244 10.6164 20.6033 10.7002 20.6818C10.7463 20.7233 10.7967 20.7653 10.8467 20.8068H10.8486C11.3263 21.133 11.8358 21.4001 12.3682 21.6252C14.0449 22.2861 15.8481 22.6462 17.6338 22.8927C18.3721 22.9852 19.1105 23.0581 19.8525 23.1125C22.6788 23.3138 25.5353 23.2527 28.3438 22.8947C30.1378 22.6474 31.9464 22.285 33.6338 21.6193C34.1676 21.3946 34.6756 21.1318 35.1484 20.8029C35.1515 20.8004 35.1551 20.7976 35.1582 20.7951C35.2081 20.7574 35.2587 20.7125 35.3047 20.6711C35.3834 20.6008 35.4592 20.5238 35.5312 20.4435C35.5471 20.4217 35.5623 20.399 35.5771 20.3761C35.6086 20.3287 35.6362 20.2793 35.6621 20.2297C35.6695 20.2061 35.6765 20.1823 35.6826 20.1584C35.6829 20.147 35.6855 20.1346 35.6855 20.1232C35.6857 20.1171 35.6863 20.1107 35.6865 20.1047C35.6872 20.0652 35.6887 20.0256 35.6934 19.9875C35.6977 19.758 35.6856 19.5248 35.6855 19.3009V15.4113C35.1189 15.7263 34.509 15.9739 33.9043 16.1945C31.5663 17.0474 29.0321 17.4066 26.5596 17.6066C23.8717 17.8255 21.1529 17.7988 18.4727 17.5158C17.3427 17.3956 16.2107 17.2393 15.0957 17.0129C14.1334 16.8215 13.1837 16.5748 12.2646 16.2482C11.9024 16.1223 11.5427 15.9872 11.1885 15.8371C10.9 15.715 10.6016 15.5717 10.3076 15.4103V19.4826ZM26.1436 9.382C23.3099 9.18069 20.4455 9.24113 17.626 9.6027C15.8339 9.84739 14.0267 10.21 12.3457 10.8761C11.8447 11.088 11.3553 11.3298 10.9102 11.6398C10.829 11.697 10.638 11.8794 10.9141 11.631C10.8718 11.665 10.8294 11.6996 10.7871 11.7336C10.6836 11.8202 10.5833 11.914 10.4912 12.0119C10.4772 12.0287 10.4615 12.0449 10.4473 12.0617C10.4451 12.0649 10.4438 12.0698 10.4414 12.0734C10.4037 12.1312 10.368 12.1924 10.335 12.2541C10.3239 12.2895 10.3163 12.3264 10.3076 12.3625C10.3077 12.3667 10.3076 12.3719 10.3076 12.3761C10.3077 12.3857 10.3093 12.3957 10.3096 12.4054C10.3172 12.4345 10.3276 12.4629 10.3369 12.4914C10.3619 12.5377 10.3876 12.5838 10.415 12.6281C10.4271 12.6483 10.442 12.6682 10.4561 12.6877C10.5323 12.7734 10.6165 12.8515 10.7002 12.9299C10.7463 12.9713 10.7967 13.0134 10.8467 13.0549L10.8486 13.0558C10.87 13.0704 10.8916 13.0855 10.9131 13.0998C10.9363 13.1152 10.9591 13.1315 10.9824 13.1466C11.3719 13.4 11.783 13.6123 12.208 13.8019C12.2654 13.8275 12.3229 13.8534 12.3809 13.8781C12.4464 13.9039 12.5122 13.9304 12.5781 13.9552C12.7275 14.0116 12.8782 14.0645 13.0293 14.1164C13.1433 14.1555 13.2581 14.1939 13.373 14.2306C13.5005 14.2714 13.6284 14.3109 13.7568 14.3488C13.8539 14.3774 13.9522 14.4047 14.0498 14.4318C14.1649 14.4638 14.2807 14.4956 14.3965 14.5256C14.5553 14.5666 14.7151 14.6062 14.875 14.6437C15.4474 14.778 16.026 14.8891 16.6055 14.9855C16.9478 15.0424 17.2908 15.0926 17.6328 15.1398C18.3543 15.2302 19.0758 15.3017 19.8008 15.3556C19.8181 15.3569 19.8353 15.3592 19.8525 15.3605C20.3987 15.3994 20.9463 15.4283 21.4941 15.4474C23.7769 15.527 26.0695 15.4314 28.3311 15.1437C30.124 14.8971 31.9322 14.536 33.6191 13.8722C34.1566 13.6468 34.6687 13.3835 35.1445 13.0529C35.1486 13.0496 35.1532 13.0464 35.1572 13.0431C35.2071 13.0055 35.2567 12.9595 35.3027 12.9181C35.3833 12.8462 35.4606 12.7671 35.5342 12.6847C35.5485 12.665 35.5628 12.6449 35.5762 12.6242C35.608 12.5763 35.636 12.5269 35.6621 12.4767C35.6689 12.4549 35.6749 12.4325 35.6807 12.4103C35.681 12.3987 35.6826 12.3868 35.6826 12.3752C35.6727 12.3322 35.6636 12.2892 35.6504 12.2472C35.6199 12.1892 35.5882 12.132 35.5508 12.0773C35.531 12.0554 35.5111 12.0327 35.4922 12.0119C35.4 11.9139 35.299 11.8203 35.1953 11.7336C35.1531 11.6997 35.1106 11.6649 35.0684 11.631C35.3603 11.8761 35.1455 11.6929 35.0723 11.6398C34.6268 11.3331 34.1371 11.0885 33.6357 10.8761C31.9532 10.2096 30.1442 9.84636 28.3506 9.60173C27.6184 9.50717 26.8827 9.43588 26.1436 9.382Z"/>
</mask>
<path fill-rule="evenodd" clip-rule="evenodd" d="M18.8447 7.19645C21.4171 6.95121 24.0166 6.93632 26.5928 7.14763C28.8383 7.33255 31.1113 7.6569 33.2607 8.3361C34.2375 8.64557 35.2343 9.02743 36.0957 9.5822C37.0315 10.1898 37.876 11.0452 37.9795 12.1789C37.9926 12.2446 38 12.3118 38 12.3791V19.6261C38 19.7609 37.9982 19.8932 37.9951 20.0246C37.9986 20.0584 38 20.093 38 20.1271V27.3742C38 27.5334 37.9986 27.6889 37.9932 27.8439C37.9935 27.8554 37.9961 27.8676 37.9961 27.8791V28.2248C37.2874 27.8747 36.5104 27.6427 35.6904 27.5529C35.6886 27.3847 35.6856 27.2163 35.6855 27.0529V23.1632C35.1189 23.4782 34.509 23.7259 33.9043 23.9465C31.678 24.7586 29.2736 25.1207 26.9141 25.3263C26.8403 25.3329 26.7662 25.3407 26.6924 25.3468C26.6481 25.3505 26.6038 25.355 26.5596 25.3586C26.5025 25.3632 26.4448 25.3649 26.3877 25.3693C26.2189 25.3822 26.0498 25.3946 25.8809 25.4054C23.9274 25.5343 21.9611 25.5333 20.0078 25.3986C18.3676 25.2944 16.7251 25.0986 15.1191 24.7687C14.67 24.6779 14.223 24.5759 13.7803 24.4601C13.7755 24.4589 13.7704 24.4584 13.7656 24.4572C12.8993 24.2341 12.038 23.9558 11.2168 23.5998C11.2075 23.5959 11.1977 23.592 11.1885 23.5881C10.9001 23.466 10.6015 23.3236 10.3076 23.1623V27.2336C10.3076 27.4185 10.2986 27.6097 10.3027 27.798C10.3049 27.8236 10.3073 27.8494 10.3076 27.8752H10.3115V27.9181C10.3185 27.944 10.3277 27.9699 10.3359 27.9953C10.361 28.0417 10.3875 28.0875 10.415 28.132C10.4274 28.1528 10.4425 28.1726 10.457 28.1925C10.5329 28.2777 10.616 28.3558 10.6992 28.4338C10.7452 28.4751 10.7959 28.5164 10.8457 28.5578C11.325 28.885 11.8367 29.1496 12.3711 29.3781C14.0468 30.0381 15.8485 30.3983 17.6328 30.6447C18.3712 30.7372 19.1095 30.8101 19.8516 30.8644C21.4588 30.9789 23.0761 31.0041 24.6885 30.9425C23.9985 31.6104 23.4131 32.3856 22.9609 33.2424C22.2875 33.2419 21.6138 33.2282 20.9414 33.1965C20.9248 33.1957 20.9082 33.1952 20.8916 33.1945C20.6859 33.1846 20.4799 33.1742 20.2744 33.1613C18.0815 33.0351 15.882 32.7513 13.7656 32.2043C12.6813 31.925 11.6043 31.5628 10.6045 31.0646C10.5057 31.0157 10.408 30.9642 10.3115 30.9113V34.9972C10.3115 35.2084 10.2977 35.4246 10.3086 35.6359C10.318 35.6753 10.3293 35.7144 10.3418 35.7531C10.3658 35.797 10.3915 35.8408 10.4189 35.884C10.4269 35.8963 10.4358 35.9087 10.4443 35.9211L10.4453 35.922C10.5222 36.0088 10.6039 36.088 10.6885 36.1672C10.7383 36.2086 10.788 36.2547 10.8379 36.2961C10.842 36.3 10.8473 36.3031 10.8516 36.3068C11.3269 36.6352 11.8409 36.8976 12.374 37.1252C14.0466 37.784 15.8429 38.1437 17.624 38.3898C18.3594 38.4839 19.0983 38.5589 19.8369 38.6125C20.5549 38.6633 21.2751 38.6974 21.9961 38.714C22.1034 39.5117 22.3124 40.277 22.6123 40.9953C22.3779 40.9931 22.1433 40.9921 21.9092 40.9865C19.2252 40.9223 16.5104 40.651 13.9072 39.9982C12.8728 39.734 11.8528 39.3977 10.8838 38.9523C10.1687 38.624 9.45315 38.2009 8.90723 37.6349C8.37298 37.0802 8.01154 36.4006 8 35.6271V27.8791C8.00003 27.8659 8.0015 27.852 8.00195 27.839C8.00179 27.8275 8.00098 27.8154 8.00098 27.8039V20.1271C8.001 20.1168 8.00167 20.1061 8.00195 20.0959C8.00177 20.0828 8.00098 20.0689 8.00098 20.0558V12.3761C8.001 12.2938 8.01048 12.2132 8.02734 12.1369C8.21743 10.1481 10.599 9.06092 12.3496 8.4611C14.4337 7.74795 16.653 7.40778 18.8447 7.19645ZM10.3076 19.4826C10.3076 19.6604 10.2998 19.8434 10.3027 20.0246C10.3063 20.0584 10.3074 20.093 10.3076 20.1271C10.3076 20.1372 10.3093 20.1481 10.3096 20.1584C10.3171 20.187 10.3278 20.2153 10.3369 20.2433C10.3619 20.2896 10.3876 20.3357 10.415 20.38C10.427 20.4002 10.442 20.4193 10.4561 20.4386C10.5323 20.5244 10.6164 20.6033 10.7002 20.6818C10.7463 20.7233 10.7967 20.7653 10.8467 20.8068H10.8486C11.3263 21.133 11.8358 21.4001 12.3682 21.6252C14.0449 22.2861 15.8481 22.6462 17.6338 22.8927C18.3721 22.9852 19.1105 23.0581 19.8525 23.1125C22.6788 23.3138 25.5353 23.2527 28.3438 22.8947C30.1378 22.6474 31.9464 22.285 33.6338 21.6193C34.1676 21.3946 34.6756 21.1318 35.1484 20.8029C35.1515 20.8004 35.1551 20.7976 35.1582 20.7951C35.2081 20.7574 35.2587 20.7125 35.3047 20.6711C35.3834 20.6008 35.4592 20.5238 35.5312 20.4435C35.5471 20.4217 35.5623 20.399 35.5771 20.3761C35.6086 20.3287 35.6362 20.2793 35.6621 20.2297C35.6695 20.2061 35.6765 20.1823 35.6826 20.1584C35.6829 20.147 35.6855 20.1346 35.6855 20.1232C35.6857 20.1171 35.6863 20.1107 35.6865 20.1047C35.6872 20.0652 35.6887 20.0256 35.6934 19.9875C35.6977 19.758 35.6856 19.5248 35.6855 19.3009V15.4113C35.1189 15.7263 34.509 15.9739 33.9043 16.1945C31.5663 17.0474 29.0321 17.4066 26.5596 17.6066C23.8717 17.8255 21.1529 17.7988 18.4727 17.5158C17.3427 17.3956 16.2107 17.2393 15.0957 17.0129C14.1334 16.8215 13.1837 16.5748 12.2646 16.2482C11.9024 16.1223 11.5427 15.9872 11.1885 15.8371C10.9 15.715 10.6016 15.5717 10.3076 15.4103V19.4826ZM26.1436 9.382C23.3099 9.18069 20.4455 9.24113 17.626 9.6027C15.8339 9.84739 14.0267 10.21 12.3457 10.8761C11.8447 11.088 11.3553 11.3298 10.9102 11.6398C10.829 11.697 10.638 11.8794 10.9141 11.631C10.8718 11.665 10.8294 11.6996 10.7871 11.7336C10.6836 11.8202 10.5833 11.914 10.4912 12.0119C10.4772 12.0287 10.4615 12.0449 10.4473 12.0617C10.4451 12.0649 10.4438 12.0698 10.4414 12.0734C10.4037 12.1312 10.368 12.1924 10.335 12.2541C10.3239 12.2895 10.3163 12.3264 10.3076 12.3625C10.3077 12.3667 10.3076 12.3719 10.3076 12.3761C10.3077 12.3857 10.3093 12.3957 10.3096 12.4054C10.3172 12.4345 10.3276 12.4629 10.3369 12.4914C10.3619 12.5377 10.3876 12.5838 10.415 12.6281C10.4271 12.6483 10.442 12.6682 10.4561 12.6877C10.5323 12.7734 10.6165 12.8515 10.7002 12.9299C10.7463 12.9713 10.7967 13.0134 10.8467 13.0549L10.8486 13.0558C10.87 13.0704 10.8916 13.0855 10.9131 13.0998C10.9363 13.1152 10.9591 13.1315 10.9824 13.1466C11.3719 13.4 11.783 13.6123 12.208 13.8019C12.2654 13.8275 12.3229 13.8534 12.3809 13.8781C12.4464 13.9039 12.5122 13.9304 12.5781 13.9552C12.7275 14.0116 12.8782 14.0645 13.0293 14.1164C13.1433 14.1555 13.2581 14.1939 13.373 14.2306C13.5005 14.2714 13.6284 14.3109 13.7568 14.3488C13.8539 14.3774 13.9522 14.4047 14.0498 14.4318C14.1649 14.4638 14.2807 14.4956 14.3965 14.5256C14.5553 14.5666 14.7151 14.6062 14.875 14.6437C15.4474 14.778 16.026 14.8891 16.6055 14.9855C16.9478 15.0424 17.2908 15.0926 17.6328 15.1398C18.3543 15.2302 19.0758 15.3017 19.8008 15.3556C19.8181 15.3569 19.8353 15.3592 19.8525 15.3605C20.3987 15.3994 20.9463 15.4283 21.4941 15.4474C23.7769 15.527 26.0695 15.4314 28.3311 15.1437C30.124 14.8971 31.9322 14.536 33.6191 13.8722C34.1566 13.6468 34.6687 13.3835 35.1445 13.0529C35.1486 13.0496 35.1532 13.0464 35.1572 13.0431C35.2071 13.0055 35.2567 12.9595 35.3027 12.9181C35.3833 12.8462 35.4606 12.7671 35.5342 12.6847C35.5485 12.665 35.5628 12.6449 35.5762 12.6242C35.608 12.5763 35.636 12.5269 35.6621 12.4767C35.6689 12.4549 35.6749 12.4325 35.6807 12.4103C35.681 12.3987 35.6826 12.3868 35.6826 12.3752C35.6727 12.3322 35.6636 12.2892 35.6504 12.2472C35.6199 12.1892 35.5882 12.132 35.5508 12.0773C35.531 12.0554 35.5111 12.0327 35.4922 12.0119C35.4 11.9139 35.299 11.8203 35.1953 11.7336C35.1531 11.6997 35.1106 11.6649 35.0684 11.631C35.3603 11.8761 35.1455 11.6929 35.0723 11.6398C34.6268 11.3331 34.1371 11.0885 33.6357 10.8761C31.9532 10.2096 30.1442 9.84636 28.3506 9.60173C27.6184 9.50717 26.8827 9.43588 26.1436 9.382Z" fill="white" stroke="black" stroke-width="0.4" mask="url(#path-1-inside-1_391_481)"/>
</g>
<g opacity="0.7">
<mask id="path-2-outside-2_391_481" maskUnits="userSpaceOnUse" x="23.6475" y="28.377" width="17" height="17" fill="black">
<rect fill="white" x="23.6475" y="28.377" width="17" height="17"/>
<path fill-rule="evenodd" clip-rule="evenodd" d="M33.8448 29.377C34.0448 29.377 34.2068 29.5382 34.2068 29.7372V31.6674C34.3059 31.7023 34.4051 31.7394 34.5023 31.7798C34.602 31.8208 34.6985 31.8638 34.7926 31.9085L36.1638 30.5442C36.3053 30.404 36.5338 30.404 36.6753 30.5442L38.8275 32.6861C38.9681 32.8269 38.9681 33.0534 38.8275 33.1941L37.4564 34.5584C37.5013 34.6521 37.5447 34.7488 37.586 34.8461V34.8478C37.6259 34.9445 37.6641 35.0431 37.6991 35.1416H39.638C39.8373 35.1416 40 35.3029 40 35.5019V38.5302C40 38.7292 39.8379 38.8905 39.638 38.8905H37.6991C37.6641 38.9897 37.6266 39.0878 37.586 39.1852C37.5447 39.2844 37.5013 39.3807 37.4564 39.4737L37.8512 39.866H37.884L38.7861 40.7888C38.7987 40.8013 38.8094 40.8156 38.8198 40.8294L38.8284 40.838C38.9692 40.9787 38.9689 41.2061 38.8284 41.3469L37.7432 42.4261L36.7099 43.5484C36.5683 43.6876 36.3398 43.6878 36.1984 43.5484L34.8272 42.1902C34.73 42.2303 34.4503 42.4163 34.3511 42.4511V44.3709C34.3511 44.5687 34.1897 44.7292 33.99 44.7295H30.9461C30.7462 44.7294 30.5841 44.5682 30.5841 44.3709V42.452C30.4851 42.4173 30.3857 42.3792 30.2886 42.3396C30.188 42.2981 29.9181 42.1701 29.8246 42.1262L29.6984 42.2507C29.6814 42.2848 29.6597 42.3173 29.6311 42.3457L28.4828 43.4888C28.3899 43.5812 28.26 43.6118 28.1415 43.583C28.0687 43.5716 27.9982 43.5399 27.9419 43.4845L25.8052 41.4238C25.708 41.3272 25.6785 41.1898 25.7154 41.0678C25.7212 40.9843 25.755 40.902 25.8191 40.838L27.1911 39.4737C27.1468 39.3807 27.1033 39.2841 27.0615 39.1843C27.0215 39.0876 26.9833 38.989 26.9483 38.8905H25.0095C24.8101 38.8905 24.6475 38.7292 24.6475 38.5302V35.5019C24.6475 35.3029 24.8095 35.1416 25.0095 35.1416H26.9483C26.9834 35.0424 27.0209 34.9443 27.0615 34.847C27.1027 34.7478 27.1462 34.6514 27.1911 34.5584L25.8191 33.1941C25.6783 33.0534 25.6784 32.8261 25.8191 32.6852L27.9713 30.5434C28.1128 30.4031 28.3413 30.4031 28.4828 30.5434L29.854 31.9085C29.9474 31.8645 30.0441 31.8214 30.1443 31.7798C30.2415 31.74 30.3407 31.7015 30.4398 31.6666V29.7372C30.4398 29.5389 30.6018 29.377 30.8018 29.377H33.8448ZM31.1629 31.9292C31.1629 32.1012 31.0418 32.2452 30.8795 32.2809C30.7214 32.3286 30.5668 32.3829 30.4173 32.4442C30.2661 32.5066 30.112 32.5801 29.9559 32.6645C29.8102 32.7428 29.6341 32.7128 29.5239 32.5997L28.227 31.3089L26.5863 32.9418L27.8866 34.2361C28.0047 34.3537 28.0241 34.5313 27.9454 34.669C27.8623 34.8221 27.7892 34.973 27.7276 35.1217C27.6631 35.2771 27.6055 35.4387 27.5557 35.6039C27.5096 35.7605 27.3657 35.8612 27.2101 35.8613V35.8631H25.3698V38.1725H27.2101C27.3823 38.1727 27.5263 38.2935 27.5626 38.4551C27.6106 38.6124 27.6661 38.7658 27.7276 38.9139C27.7904 39.0645 27.864 39.2186 27.9488 39.3735C28.0273 39.5185 27.9968 39.6934 27.8832 39.8029L27.8201 39.866H27.8875C27.8823 39.8711 27.8769 39.8766 27.8719 39.8815L26.6165 41.124L28.2098 42.7094L29.4945 41.4394C29.6047 41.3268 29.7808 41.2966 29.9265 41.3746C30.0829 41.4586 30.4103 41.6166 30.5616 41.6787C30.7111 41.7396 30.8657 41.7936 31.0238 41.8411C31.1859 41.8766 31.307 42.0194 31.3072 42.1902V44.0124H33.6279V42.1902C33.6282 42.0363 33.7307 41.8937 33.888 41.848C34.054 41.7993 34.2166 41.7426 34.3727 41.6787C34.5221 41.6178 34.6735 41.5457 34.8272 41.4635C34.9656 41.3856 35.0348 41.3838 35.1529 41.5007L35.4208 41.7659C35.4587 41.7833 35.4949 41.8065 35.5262 41.8377L36.4196 42.7267L37.2395 41.9102L38.0128 41.0462L36.76 39.7995C36.6419 39.6819 36.6225 39.5044 36.7012 39.3666C36.7843 39.2135 36.8568 39.0626 36.919 38.9139C36.9835 38.7584 37.0417 38.597 37.0909 38.4317C37.137 38.275 37.2808 38.1734 37.4365 38.1734L39.2768 38.1725V35.8631H37.4365C37.2642 35.8631 37.1194 35.7422 37.0831 35.5805C37.0351 35.4238 36.9796 35.2707 36.9181 35.1226C36.8535 34.9677 36.7799 34.8136 36.6969 34.6612C36.6183 34.5162 36.6488 34.3413 36.7626 34.2318L38.0594 32.941L36.4187 31.308L35.1184 32.6023C35.0002 32.7198 34.8213 32.7394 34.6829 32.661C34.5291 32.5784 34.3779 32.5054 34.2284 32.4442C34.0722 32.3799 33.9097 32.3229 33.7437 32.274C33.5862 32.228 33.4845 32.0841 33.4845 31.9292L33.4837 30.0984H31.1629V31.9292Z"/>
</mask>
<path fill-rule="evenodd" clip-rule="evenodd" d="M33.8448 29.377C34.0448 29.377 34.2068 29.5382 34.2068 29.7372V31.6674C34.3059 31.7023 34.4051 31.7394 34.5023 31.7798C34.602 31.8208 34.6985 31.8638 34.7926 31.9085L36.1638 30.5442C36.3053 30.404 36.5338 30.404 36.6753 30.5442L38.8275 32.6861C38.9681 32.8269 38.9681 33.0534 38.8275 33.1941L37.4564 34.5584C37.5013 34.6521 37.5447 34.7488 37.586 34.8461V34.8478C37.6259 34.9445 37.6641 35.0431 37.6991 35.1416H39.638C39.8373 35.1416 40 35.3029 40 35.5019V38.5302C40 38.7292 39.8379 38.8905 39.638 38.8905H37.6991C37.6641 38.9897 37.6266 39.0878 37.586 39.1852C37.5447 39.2844 37.5013 39.3807 37.4564 39.4737L37.8512 39.866H37.884L38.7861 40.7888C38.7987 40.8013 38.8094 40.8156 38.8198 40.8294L38.8284 40.838C38.9692 40.9787 38.9689 41.2061 38.8284 41.3469L37.7432 42.4261L36.7099 43.5484C36.5683 43.6876 36.3398 43.6878 36.1984 43.5484L34.8272 42.1902C34.73 42.2303 34.4503 42.4163 34.3511 42.4511V44.3709C34.3511 44.5687 34.1897 44.7292 33.99 44.7295H30.9461C30.7462 44.7294 30.5841 44.5682 30.5841 44.3709V42.452C30.4851 42.4173 30.3857 42.3792 30.2886 42.3396C30.188 42.2981 29.9181 42.1701 29.8246 42.1262L29.6984 42.2507C29.6814 42.2848 29.6597 42.3173 29.6311 42.3457L28.4828 43.4888C28.3899 43.5812 28.26 43.6118 28.1415 43.583C28.0687 43.5716 27.9982 43.5399 27.9419 43.4845L25.8052 41.4238C25.708 41.3272 25.6785 41.1898 25.7154 41.0678C25.7212 40.9843 25.755 40.902 25.8191 40.838L27.1911 39.4737C27.1468 39.3807 27.1033 39.2841 27.0615 39.1843C27.0215 39.0876 26.9833 38.989 26.9483 38.8905H25.0095C24.8101 38.8905 24.6475 38.7292 24.6475 38.5302V35.5019C24.6475 35.3029 24.8095 35.1416 25.0095 35.1416H26.9483C26.9834 35.0424 27.0209 34.9443 27.0615 34.847C27.1027 34.7478 27.1462 34.6514 27.1911 34.5584L25.8191 33.1941C25.6783 33.0534 25.6784 32.8261 25.8191 32.6852L27.9713 30.5434C28.1128 30.4031 28.3413 30.4031 28.4828 30.5434L29.854 31.9085C29.9474 31.8645 30.0441 31.8214 30.1443 31.7798C30.2415 31.74 30.3407 31.7015 30.4398 31.6666V29.7372C30.4398 29.5389 30.6018 29.377 30.8018 29.377H33.8448ZM31.1629 31.9292C31.1629 32.1012 31.0418 32.2452 30.8795 32.2809C30.7214 32.3286 30.5668 32.3829 30.4173 32.4442C30.2661 32.5066 30.112 32.5801 29.9559 32.6645C29.8102 32.7428 29.6341 32.7128 29.5239 32.5997L28.227 31.3089L26.5863 32.9418L27.8866 34.2361C28.0047 34.3537 28.0241 34.5313 27.9454 34.669C27.8623 34.8221 27.7892 34.973 27.7276 35.1217C27.6631 35.2771 27.6055 35.4387 27.5557 35.6039C27.5096 35.7605 27.3657 35.8612 27.2101 35.8613V35.8631H25.3698V38.1725H27.2101C27.3823 38.1727 27.5263 38.2935 27.5626 38.4551C27.6106 38.6124 27.6661 38.7658 27.7276 38.9139C27.7904 39.0645 27.864 39.2186 27.9488 39.3735C28.0273 39.5185 27.9968 39.6934 27.8832 39.8029L27.8201 39.866H27.8875C27.8823 39.8711 27.8769 39.8766 27.8719 39.8815L26.6165 41.124L28.2098 42.7094L29.4945 41.4394C29.6047 41.3268 29.7808 41.2966 29.9265 41.3746C30.0829 41.4586 30.4103 41.6166 30.5616 41.6787C30.7111 41.7396 30.8657 41.7936 31.0238 41.8411C31.1859 41.8766 31.307 42.0194 31.3072 42.1902V44.0124H33.6279V42.1902C33.6282 42.0363 33.7307 41.8937 33.888 41.848C34.054 41.7993 34.2166 41.7426 34.3727 41.6787C34.5221 41.6178 34.6735 41.5457 34.8272 41.4635C34.9656 41.3856 35.0348 41.3838 35.1529 41.5007L35.4208 41.7659C35.4587 41.7833 35.4949 41.8065 35.5262 41.8377L36.4196 42.7267L37.2395 41.9102L38.0128 41.0462L36.76 39.7995C36.6419 39.6819 36.6225 39.5044 36.7012 39.3666C36.7843 39.2135 36.8568 39.0626 36.919 38.9139C36.9835 38.7584 37.0417 38.597 37.0909 38.4317C37.137 38.275 37.2808 38.1734 37.4365 38.1734L39.2768 38.1725V35.8631H37.4365C37.2642 35.8631 37.1194 35.7422 37.0831 35.5805C37.0351 35.4238 36.9796 35.2707 36.9181 35.1226C36.8535 34.9677 36.7799 34.8136 36.6969 34.6612C36.6183 34.5162 36.6488 34.3413 36.7626 34.2318L38.0594 32.941L36.4187 31.308L35.1184 32.6023C35.0002 32.7198 34.8213 32.7394 34.6829 32.661C34.5291 32.5784 34.3779 32.5054 34.2284 32.4442C34.0722 32.3799 33.9097 32.3229 33.7437 32.274C33.5862 32.228 33.4845 32.0841 33.4845 31.9292L33.4837 30.0984H31.1629V31.9292Z" fill="white"/>
<path fill-rule="evenodd" clip-rule="evenodd" d="M33.8448 29.377C34.0448 29.377 34.2068 29.5382 34.2068 29.7372V31.6674C34.3059 31.7023 34.4051 31.7394 34.5023 31.7798C34.602 31.8208 34.6985 31.8638 34.7926 31.9085L36.1638 30.5442C36.3053 30.404 36.5338 30.404 36.6753 30.5442L38.8275 32.6861C38.9681 32.8269 38.9681 33.0534 38.8275 33.1941L37.4564 34.5584C37.5013 34.6521 37.5447 34.7488 37.586 34.8461V34.8478C37.6259 34.9445 37.6641 35.0431 37.6991 35.1416H39.638C39.8373 35.1416 40 35.3029 40 35.5019V38.5302C40 38.7292 39.8379 38.8905 39.638 38.8905H37.6991C37.6641 38.9897 37.6266 39.0878 37.586 39.1852C37.5447 39.2844 37.5013 39.3807 37.4564 39.4737L37.8512 39.866H37.884L38.7861 40.7888C38.7987 40.8013 38.8094 40.8156 38.8198 40.8294L38.8284 40.838C38.9692 40.9787 38.9689 41.2061 38.8284 41.3469L37.7432 42.4261L36.7099 43.5484C36.5683 43.6876 36.3398 43.6878 36.1984 43.5484L34.8272 42.1902C34.73 42.2303 34.4503 42.4163 34.3511 42.4511V44.3709C34.3511 44.5687 34.1897 44.7292 33.99 44.7295H30.9461C30.7462 44.7294 30.5841 44.5682 30.5841 44.3709V42.452C30.4851 42.4173 30.3857 42.3792 30.2886 42.3396C30.188 42.2981 29.9181 42.1701 29.8246 42.1262L29.6984 42.2507C29.6814 42.2848 29.6597 42.3173 29.6311 42.3457L28.4828 43.4888C28.3899 43.5812 28.26 43.6118 28.1415 43.583C28.0687 43.5716 27.9982 43.5399 27.9419 43.4845L25.8052 41.4238C25.708 41.3272 25.6785 41.1898 25.7154 41.0678C25.7212 40.9843 25.755 40.902 25.8191 40.838L27.1911 39.4737C27.1468 39.3807 27.1033 39.2841 27.0615 39.1843C27.0215 39.0876 26.9833 38.989 26.9483 38.8905H25.0095C24.8101 38.8905 24.6475 38.7292 24.6475 38.5302V35.5019C24.6475 35.3029 24.8095 35.1416 25.0095 35.1416H26.9483C26.9834 35.0424 27.0209 34.9443 27.0615 34.847C27.1027 34.7478 27.1462 34.6514 27.1911 34.5584L25.8191 33.1941C25.6783 33.0534 25.6784 32.8261 25.8191 32.6852L27.9713 30.5434C28.1128 30.4031 28.3413 30.4031 28.4828 30.5434L29.854 31.9085C29.9474 31.8645 30.0441 31.8214 30.1443 31.7798C30.2415 31.74 30.3407 31.7015 30.4398 31.6666V29.7372C30.4398 29.5389 30.6018 29.377 30.8018 29.377H33.8448ZM31.1629 31.9292C31.1629 32.1012 31.0418 32.2452 30.8795 32.2809C30.7214 32.3286 30.5668 32.3829 30.4173 32.4442C30.2661 32.5066 30.112 32.5801 29.9559 32.6645C29.8102 32.7428 29.6341 32.7128 29.5239 32.5997L28.227 31.3089L26.5863 32.9418L27.8866 34.2361C28.0047 34.3537 28.0241 34.5313 27.9454 34.669C27.8623 34.8221 27.7892 34.973 27.7276 35.1217C27.6631 35.2771 27.6055 35.4387 27.5557 35.6039C27.5096 35.7605 27.3657 35.8612 27.2101 35.8613V35.8631H25.3698V38.1725H27.2101C27.3823 38.1727 27.5263 38.2935 27.5626 38.4551C27.6106 38.6124 27.6661 38.7658 27.7276 38.9139C27.7904 39.0645 27.864 39.2186 27.9488 39.3735C28.0273 39.5185 27.9968 39.6934 27.8832 39.8029L27.8201 39.866H27.8875C27.8823 39.8711 27.8769 39.8766 27.8719 39.8815L26.6165 41.124L28.2098 42.7094L29.4945 41.4394C29.6047 41.3268 29.7808 41.2966 29.9265 41.3746C30.0829 41.4586 30.4103 41.6166 30.5616 41.6787C30.7111 41.7396 30.8657 41.7936 31.0238 41.8411C31.1859 41.8766 31.307 42.0194 31.3072 42.1902V44.0124H33.6279V42.1902C33.6282 42.0363 33.7307 41.8937 33.888 41.848C34.054 41.7993 34.2166 41.7426 34.3727 41.6787C34.5221 41.6178 34.6735 41.5457 34.8272 41.4635C34.9656 41.3856 35.0348 41.3838 35.1529 41.5007L35.4208 41.7659C35.4587 41.7833 35.4949 41.8065 35.5262 41.8377L36.4196 42.7267L37.2395 41.9102L38.0128 41.0462L36.76 39.7995C36.6419 39.6819 36.6225 39.5044 36.7012 39.3666C36.7843 39.2135 36.8568 39.0626 36.919 38.9139C36.9835 38.7584 37.0417 38.597 37.0909 38.4317C37.137 38.275 37.2808 38.1734 37.4365 38.1734L39.2768 38.1725V35.8631H37.4365C37.2642 35.8631 37.1194 35.7422 37.0831 35.5805C37.0351 35.4238 36.9796 35.2707 36.9181 35.1226C36.8535 34.9677 36.7799 34.8136 36.6969 34.6612C36.6183 34.5162 36.6488 34.3413 36.7626 34.2318L38.0594 32.941L36.4187 31.308L35.1184 32.6023C35.0002 32.7198 34.8213 32.7394 34.6829 32.661C34.5291 32.5784 34.3779 32.5054 34.2284 32.4442C34.0722 32.3799 33.9097 32.3229 33.7437 32.274C33.5862 32.228 33.4845 32.0841 33.4845 31.9292L33.4837 30.0984H31.1629V31.9292Z" stroke="white" stroke-width="0.353897" mask="url(#path-2-outside-2_391_481)"/>
</g>
<circle opacity="0.7" cx="32" cy="37" r="2.5" stroke="white"/>
</svg>
